<svg width="1440" height="1024" viewBox="0 0 1440 1024" fill="none" xmlns="http://www.w3.org/2000/svg">
<g clip-path="url(#clip0_752_5138)">
<rect width="1440" height="1024" fill="white"/>
<g opacity="0.17">
<mask id="mask0_752_5138" style="mask-type:luminance" maskUnits="userSpaceOnUse" x="0" y="0" width="1440" height="1025">
<path d="M1440 0H0V1025H1440V0Z" fill="white"/>
</mask>
<g mask="url(#mask0_752_5138)">
<path d="M235.641 -38.9497C297.801 -101.347 387.441 -129.79 471.681 -114.159C555.921 -98.5279 632.601 -38.6935 673.881 43.0503C726.321 147.088 724.041 282.132 799.401 368.103C863.361 440.878 963.081 455.357 1054.16 469.707C1145.24 484.057 1246.04 509.681 1297.76 593.091C1332.68 649.466 1340.12 725.572 1387.16 770.288C1435.04 815.644 1508.6 811.544 1565.72 783.356C1622.84 755.169 1669.16 707.507 1720.76 668.813C1877 551.835 2086.64 522.622 2267.36 592.578" stroke="#6CB9AD" stroke-miterlimit="10"/>
<path d="M227.24 -31.0067C262.52 -65.3442 306.44 -88.2786 352.4 -98.0161C390.32 -106.088 429.56 -105.319 466.64 -95.5817C475.16 -93.2755 483.44 -90.5849 491.6 -87.5099C533.72 -71.238 571.64 -43.3067 605.12 -8.32861C628.04 15.6308 648.92 42.2808 665.48 70.8526C674.72 86.7401 682.76 103.012 689.96 119.54C709.64 164.64 723.08 211.406 740.72 255.225C757.04 296.353 777.2 335.046 809.72 367.462C812.96 370.665 816.2 373.74 819.68 376.815C857.6 410.64 905.12 431.653 952.28 448.181C988.76 460.993 1024.88 470.218 1059.44 479.187C1062.92 480.084 1066.4 480.981 1069.88 481.878C1115.72 494.178 1163.6 510.193 1204.4 537.1C1235.12 557.215 1262.12 583.993 1284.2 618.715C1319.12 673.809 1329.32 744.918 1376.36 786.303C1423.88 828.456 1495.64 824.228 1551.92 797.834C1589.36 780.281 1622.36 754.784 1655.24 729.415C1671.8 716.603 1688.36 703.79 1705.4 692.003C1774.16 644.468 1852.52 614.359 1932.68 602.571C2032.52 587.965 2134.64 601.803 2225.36 641.65" stroke="#6CB9AD" stroke-miterlimit="10"/>
<path d="M218.961 -23.0625C255.321 -57.5281 301.041 -79.3094 347.841 -86.7406C386.481 -92.8906 425.721 -89.4313 461.721 -76.875C470.001 -74.0563 478.041 -70.725 485.841 -66.8813C526.281 -47.4063 560.841 -16.5281 594.321 19.9875C617.121 44.9719 639.081 71.6218 657.441 98.9125C667.641 114.159 676.761 129.534 685.041 144.781C707.721 186.55 724.521 227.806 744.681 266.628C763.641 303.144 786.081 337.353 820.281 367.206C823.641 370.153 827.121 372.972 830.721 375.791C870.441 406.925 919.521 428.963 965.241 448.694C1000.64 464.069 1033.64 476.625 1064.84 488.669C1067.96 489.822 1071.08 491.103 1074.32 492.256C1115.72 508.528 1159.04 528.259 1195.88 557.856C1223.6 580.15 1248.08 609.234 1270.88 644.341C1305.8 698.153 1318.88 764.009 1365.8 802.319C1413.2 841.012 1483.04 836.912 1538.48 812.312C1575.32 796.041 1608.08 772.466 1640.72 749.147C1657.16 737.359 1673.6 725.7 1690.4 715.066C1758.32 672.144 1834.88 646.647 1911.68 639.344C2007.32 630.247 2102.6 649.594 2183.84 690.594" stroke="#6CB9AD" stroke-miterlimit="10"/>
<path d="M210.559 -15.1185C248.119 -49.7123 295.519 -70.4685 343.159 -75.5935C382.399 -79.8216 421.759 -73.6716 456.799 -58.4248C464.839 -54.9654 472.519 -50.9935 480.079 -46.6373C518.719 -23.9591 550.159 9.73773 583.399 47.7909C606.079 73.9284 629.239 100.322 649.279 126.588C660.439 141.194 670.519 155.544 679.879 169.51C705.559 207.819 725.479 243.694 748.399 277.647C769.879 309.422 794.599 339.275 830.599 366.438C834.199 369.128 837.799 371.819 841.519 374.381C883.159 403.338 933.919 426.272 978.199 449.335C1012.52 467.4 1042.28 483.288 1070.24 498.278C1073 499.816 1075.88 501.225 1078.64 502.763C1115.72 522.75 1154.36 546.325 1187.24 578.869C1211.84 603.213 1233.92 634.731 1257.44 670.222C1292.24 722.753 1308.32 783.485 1355.12 818.591C1402.28 853.953 1470.2 849.853 1524.92 827.047C1561.28 811.928 1593.68 790.275 1626.08 769.007C1642.4 758.372 1658.6 747.866 1675.28 738.385C1742.36 700.075 1817 679.191 1890.56 676.372C1982.12 672.913 2070.32 697.769 2142.08 739.794" stroke="#6CB9AD" stroke-miterlimit="10"/>
<path d="M202.16 -7.17582C240.92 -41.8977 290 -61.5008 338.48 -64.3196C378.44 -66.6258 417.8 -57.7852 451.88 -39.8477C459.68 -35.7477 467.12 -31.1352 474.32 -26.2665C511.28 -0.513334 539.48 36.2585 572.48 75.721C595.04 102.884 619.4 129.277 641 154.262C653 168.227 664.28 181.68 674.72 194.365C703.52 229.215 726.56 259.709 752.12 288.665C776 315.699 803.12 341.196 840.92 365.796C844.64 368.23 848.48 370.665 852.44 372.971C896 399.621 948.32 423.324 991.16 449.846C1024.4 470.474 1050.92 489.693 1075.64 507.63C1078.16 509.424 1080.56 511.218 1083.08 513.012C1115.84 536.843 1149.92 564.134 1178.72 599.624C1200.32 626.146 1219.76 659.971 1244.12 695.846C1278.8 747.096 1297.76 802.702 1344.56 834.734C1391.48 866.765 1457.6 862.665 1511.36 841.652C1547.12 827.687 1579.4 807.955 1611.44 788.865C1627.52 779.255 1643.72 769.902 1660.16 761.574C1726.4 727.877 1799.24 711.605 1869.44 713.271C1956.8 715.321 2038.16 745.687 2100.44 788.865" stroke="#6CB9AD" stroke-miterlimit="10"/>
<path d="M193.76 0.769131C233.72 -34.0809 284.36 -52.659 333.8 -53.1715C374.36 -53.684 413.72 -42.0246 446.84 -21.3965C454.4 -16.6559 461.6 -11.5309 468.44 -5.89336C503.6 23.0629 528.68 62.6535 561.44 103.654C583.88 131.969 609.32 158.235 632.72 182.066C645.68 195.391 658.04 207.819 669.56 219.222C701.36 250.741 727.52 275.725 755.84 299.813C782.24 322.235 811.76 343.247 851.24 365.285C855.2 367.463 859.16 369.641 863.24 371.819C908.72 395.907 962.6 420.763 1004 450.488C1036.16 473.807 1059.44 496.229 1080.8 517.241C1082.96 519.291 1085.12 521.341 1087.28 523.519C1115.72 551.322 1145.12 582.2 1169.96 620.638C1188.44 649.21 1205.48 685.469 1230.56 721.729C1265.24 771.697 1286.96 822.179 1333.64 851.007C1380.32 879.707 1444.52 875.607 1497.56 856.388C1532.84 843.704 1564.76 825.766 1596.56 808.854C1612.52 800.397 1628.48 792.069 1644.68 784.894C1710.08 755.938 1781.12 744.15 1847.96 750.172C1931.24 757.86 2005.52 793.735 2058.44 837.938" stroke="#6CB9AD" stroke-miterlimit="10"/>
<path d="M185.359 8.58475C226.399 -26.3934 278.839 -43.9465 329.119 -42.0246C370.399 -40.6152 409.759 -26.2652 441.919 -2.81837C449.239 2.56288 456.199 8.32851 462.679 14.4785C496.159 46.6379 517.999 89.1754 550.519 131.713C572.959 161.054 599.479 187.191 624.559 209.997C638.479 222.554 651.919 234.213 664.519 244.335C699.319 272.394 728.599 291.997 759.799 311.088C788.599 328.769 820.519 345.425 861.919 364.772C865.999 366.694 870.199 368.616 874.519 370.538C921.799 392.319 977.359 417.944 1017.32 451.128C1048.28 477.01 1068.44 502.635 1086.56 526.722C1088.36 529.157 1090.16 531.463 1092.08 533.897C1116.2 565.544 1140.92 600.138 1161.8 641.522C1177.28 672.144 1191.68 710.838 1217.6 747.482C1252.16 796.297 1276.88 841.525 1323.44 867.15C1369.88 892.647 1432.28 888.419 1484.48 870.994C1519.16 859.463 1550.84 843.447 1582.4 828.713C1598.24 821.282 1614.08 814.235 1630.04 808.213C1694.6 783.869 1763.72 776.694 1827.2 787.2C1906.28 800.525 1973.72 841.782 2017.16 887.138" stroke="#6CB9AD" stroke-miterlimit="10"/>
<path d="M176.961 16.5282C219.201 -18.578 273.321 -34.978 324.441 -30.7499C366.321 -27.4186 405.801 -10.378 436.881 15.7595C443.961 21.6532 450.681 28.1876 456.801 34.9782C488.481 70.3407 507.201 115.825 539.481 159.772C561.801 190.266 589.521 216.275 616.161 237.8C630.921 249.716 645.441 260.35 659.121 269.191C697.041 293.791 729.321 308.013 763.281 322.106C794.601 335.047 828.801 347.219 872.001 364.131C876.321 365.797 880.641 367.463 885.081 369.256C934.281 388.603 991.401 415.125 1029.92 451.641C1059.8 480.213 1076.72 509.041 1091.6 536.203C1093.04 538.894 1094.6 541.584 1096.04 544.275C1115.72 579.894 1136 618.075 1152.8 662.278C1165.16 695.078 1177.04 736.078 1203.68 772.978C1238 820.513 1265.72 860.616 1312.28 883.038C1358.36 905.203 1418.96 900.975 1470.32 885.344C1504.52 874.966 1535.96 860.872 1567.16 848.316C1582.88 841.909 1598.48 836.016 1614.32 831.147C1678.04 811.416 1745.36 808.853 1805.48 823.844C1880.48 842.678 1940.96 889.572 1974.8 935.953" stroke="#6CB9AD" stroke-miterlimit="10"/>
<path d="M168.68 24.4715C212.12 -10.7629 267.92 -26.1379 319.88 -19.6035C362.48 -14.3504 401.96 5.50899 432.08 34.209C438.92 40.7434 445.28 47.7902 451.16 55.2215C481.16 93.7871 496.64 142.09 528.68 187.575C550.88 219.093 579.68 245.103 608.12 265.475C623.84 276.75 639.44 286.359 654.2 294.047C695.24 315.187 730.52 324.156 767.24 333.253C800.96 341.581 837.56 349.268 882.56 363.618C887 365.028 891.56 366.437 896.12 367.975C947.12 384.887 1005.92 412.434 1042.88 452.281C1071.68 483.415 1085.36 515.575 1097 545.684C1098.2 548.631 1099.28 551.578 1100.48 554.525C1115.84 594.115 1131.56 635.756 1144.28 683.034C1153.64 717.884 1162.88 761.318 1190.36 798.603C1224.56 844.984 1255.16 879.962 1301.72 899.053C1347.56 917.887 1406.36 913.659 1456.88 899.95C1490.48 890.853 1521.68 878.553 1552.64 868.175C1568.24 862.921 1583.72 858.181 1599.32 854.337C1662.08 839.218 1727.6 841.268 1784.48 860.743C1855.28 885.215 1908.8 937.49 1933.28 985.025" stroke="#6CB9AD" stroke-miterlimit="10"/>
<path d="M160.281 32.4157C204.921 -2.94676 262.401 -17.2968 315.081 -8.32801C358.281 -1.15301 397.881 21.397 427.041 52.7876C433.641 59.9626 439.761 67.6501 445.281 75.5939C473.481 117.235 485.721 168.613 517.761 215.634C539.841 248.178 569.841 274.188 599.961 293.406C616.641 304.041 633.321 312.753 649.161 319.159C693.201 336.841 731.601 340.556 771.081 344.528C807.201 348.244 846.321 351.447 893.001 363.106C897.681 364.259 902.361 365.541 907.161 366.822C959.961 381.428 1020.44 409.744 1055.96 452.922C1083.68 486.747 1094.12 522.109 1102.4 555.294C1103.24 558.625 1104.08 561.828 1104.92 565.031C1115.84 608.466 1127 653.822 1135.76 704.047C1142.12 740.947 1148.72 786.944 1177.04 824.484C1211.12 869.713 1244.6 899.438 1291.16 915.325C1336.76 930.956 1393.64 926.6 1443.44 914.684C1476.56 906.741 1507.4 896.363 1538.12 888.163C1553.48 883.935 1568.84 880.347 1584.32 877.784C1646.24 867.278 1709.96 873.941 1763.48 897.9C1830.2 927.881 1876.76 985.794 1891.76 1034.35" stroke="#6CB9AD" stroke-miterlimit="10"/>
<path d="M151.881 40.3599C197.721 4.86922 256.761 -8.32765 310.401 2.94735C354.321 12.0442 393.921 37.2849 422.001 71.4942C428.361 79.3099 434.241 87.5098 439.401 96.2223C465.921 141.066 474.921 195.263 506.721 243.822C528.681 277.519 559.881 303.272 591.561 321.338C609.201 331.332 626.961 339.019 643.881 344.144C691.041 358.366 732.441 356.7 774.801 355.675C813.441 354.779 854.841 353.497 903.321 362.594C908.121 363.491 913.041 364.516 917.961 365.541C972.681 377.841 1034.72 407.054 1068.8 453.435C1095.44 489.822 1102.64 528.516 1107.68 564.647C1108.16 568.235 1108.64 571.822 1109.24 575.282C1115.72 622.688 1122.44 671.632 1127.12 724.804C1130.48 763.754 1134.44 812.185 1163.6 850.11C1197.44 894.057 1233.92 918.785 1280.48 931.341C1325.72 943.641 1380.92 939.285 1429.88 929.163C1462.4 922.372 1493.12 913.916 1523.48 907.766C1538.72 904.691 1553.96 902.129 1569.2 900.719C1630.28 894.826 1692.2 905.972 1742.36 934.544C1804.88 970.163 1844.6 1033.46 1850 1083.17" stroke="#6CB9AD" stroke-miterlimit="10"/>
<path d="M143.48 48.3029C190.4 12.6841 251.24 0.512258 305.72 14.0935C350.24 25.1123 389.96 53.0435 417.08 89.9435C423.32 98.3998 428.84 107.24 433.64 116.465C458.36 164.512 464.24 221.656 495.8 271.625C517.64 306.347 549.92 332.1 583.4 349.012C601.88 358.365 620.84 365.156 638.72 369C688.88 379.762 733.401 372.844 778.521 366.822C819.561 361.312 863.36 355.547 913.64 362.081C918.68 362.722 923.72 363.49 928.88 364.387C985.401 374.381 1049.12 404.362 1081.76 454.203C1107.2 493.281 1111.28 535.178 1113.08 574.384C1113.2 578.228 1113.44 582.072 1113.56 585.915C1115.72 637.165 1117.88 689.697 1118.36 745.944C1118.72 787.072 1120.04 837.809 1150.04 876.118C1183.64 918.912 1223.12 938.387 1269.68 947.868C1314.68 956.965 1367.96 952.481 1416.08 944.153C1448.12 938.643 1478.48 932.109 1508.6 928.009C1523.72 925.959 1538.72 924.678 1553.72 924.293C1613.96 923.012 1673.96 938.772 1720.76 971.828C1779.2 1012.96 1811.84 1081.89 1807.88 1132.62" stroke="#6CB9AD" stroke-miterlimit="10"/>
<path d="M135.08 56.1186C183.2 20.3717 245.72 9.22486 301.04 25.2405C346.28 38.1811 386 68.803 412.04 108.394C418.04 117.49 423.2 126.972 427.64 136.837C450.68 188.087 453.32 248.178 484.64 299.684C506.36 335.559 539.84 361.184 575 376.815C594.44 385.528 614.48 391.294 633.44 393.856C686.72 401.159 734.36 388.987 782.12 377.84C825.68 367.719 871.88 357.469 923.84 361.44C929 361.825 934.28 362.337 939.56 362.978C998 370.537 1063.28 401.415 1094.48 454.587C1118.84 496.228 1119.8 541.456 1118.24 583.609C1118.12 587.837 1117.88 591.937 1117.76 596.037C1115.48 651.259 1113.2 707.378 1109.6 766.444C1106.96 809.622 1105.64 862.922 1136.48 901.487C1169.96 943.128 1212.32 957.478 1258.76 963.628C1303.4 969.522 1355 964.909 1402.28 958.375C1433.72 954.019 1463.84 949.406 1493.72 947.484C1508.72 946.459 1523.6 946.331 1538.36 947.228C1597.76 950.559 1655.96 970.931 1699.4 1008.34C1753.64 1055.11 1779.44 1129.42 1766 1181.31" stroke="#6CB9AD" stroke-miterlimit="10"/>
<path d="M126.68 64.0621C176 28.1871 240.2 18.1933 296.36 36.5152C342.2 51.3777 381.92 84.6901 407.12 126.971C412.88 136.581 417.8 146.703 421.88 157.209C443.12 211.534 442.64 274.571 473.72 327.615C495.32 364.515 530 390.012 566.72 404.618C587.12 412.69 608.12 417.431 628.28 418.84C684.68 422.556 735.32 405.259 785.84 388.987C831.8 374.253 880.4 359.518 934.16 360.8C939.56 360.928 944.96 361.184 950.36 361.696C1010.6 366.821 1077.44 398.725 1107.32 455.228C1130.6 499.431 1128.44 547.99 1123.4 593.218C1122.92 597.703 1122.44 602.059 1121.96 606.543C1115.12 665.609 1108.52 725.443 1100.84 787.456C1095.2 832.684 1091.12 888.546 1122.92 927.368C1156.16 967.856 1201.52 977.081 1247.96 979.9C1292.36 982.59 1342.04 977.85 1388.6 973.109C1419.44 969.906 1449.44 967.215 1478.96 967.471C1493.72 967.6 1508.48 968.496 1523.12 970.546C1581.68 978.49 1637.96 1003.47 1678.16 1045.37C1728.32 1097.77 1747.04 1177.6 1724.12 1230.51" stroke="#6CB9AD" stroke-miterlimit="10"/>
<path d="M118.281 72.0062C168.801 36.0031 234.681 27.0344 291.681 47.6625C338.241 64.4468 377.961 100.45 402.201 145.55C407.721 155.8 412.401 166.562 416.121 177.581C435.681 235.109 431.961 301.094 462.801 355.547C484.281 393.6 520.041 418.969 558.561 432.422C579.801 439.853 602.001 443.569 623.241 443.697C682.641 443.953 736.521 421.531 789.681 400.134C838.161 380.787 889.041 361.569 944.601 360.287C950.121 360.159 955.761 360.159 961.401 360.416C1023.56 363.234 1091.96 395.906 1120.4 455.741C1142.6 502.634 1137.2 554.269 1128.92 602.7C1128.08 607.441 1127.24 612.181 1126.52 616.922C1115.24 679.959 1104.32 743.381 1092.44 808.341C1083.92 855.747 1077.08 913.916 1109.72 953.122C1142.72 992.584 1191.2 996.556 1237.52 996.044C1281.56 995.531 1329.56 990.662 1375.16 987.715C1405.52 985.665 1435.16 984.897 1464.44 987.331C1479.08 988.484 1493.72 990.662 1508.12 993.737C1565.84 1006.42 1620.32 1035.89 1657.16 1082.27C1703.12 1140.18 1715 1225.52 1682.6 1279.58" stroke="#6CB9AD" stroke-miterlimit="10"/>
<path d="M110 79.9508C161.6 43.8195 229.16 36.0039 287.12 58.9383C334.28 77.6445 374.12 116.338 397.28 164.129C402.56 175.019 407 186.423 410.36 198.082C428.12 258.813 421.28 327.616 451.88 383.735C473.36 422.813 510.2 448.182 550.4 460.354C572.6 467.144 595.88 469.963 618.08 468.81C680.48 465.607 737.48 437.932 793.52 411.41C844.52 387.451 897.8 363.62 955.16 359.904C960.92 359.52 966.68 359.391 972.44 359.391C1036.4 359.776 1106.48 393.473 1133.48 456.51C1154.6 505.966 1145.96 560.932 1134.44 612.31C1133.36 617.307 1132.16 622.432 1130.96 627.429C1115.36 694.31 1099.88 761.448 1083.92 829.354C1072.4 878.81 1062.8 939.541 1096.4 978.876C1129.16 1017.19 1180.64 1016.16 1226.96 1012.19C1270.76 1008.47 1316.96 1003.48 1361.72 1002.32C1391.48 1001.55 1421 1002.58 1449.92 1007.19C1464.44 1009.5 1478.84 1012.7 1493.12 1017.06C1550 1034.35 1602.56 1068.44 1636.16 1119.3C1678.04 1182.85 1682.96 1273.69 1641.08 1328.79" stroke="#6CB9AD" stroke-miterlimit="10"/>
<path d="M101.6 87.8937C154.4 51.6343 223.64 44.8437 282.44 70.0843C341.24 95.325 387.92 152.212 404.6 218.325C420.68 282.259 410.48 354.009 441.08 411.537C474.2 473.934 547.64 500.2 613.04 493.537C678.44 486.875 738.56 453.819 797.36 422.428C856.16 390.909 917.6 359.903 983.36 357.981C1049.12 356.059 1120.88 390.525 1146.44 457.022C1168.4 514.294 1151.96 578.869 1135.4 637.678C1115.36 708.531 1095.44 779.256 1075.4 850.109C1060.88 901.744 1048.52 964.909 1083.08 1004.5C1115.6 1041.66 1170.08 1035.51 1216.4 1028.2C1288.88 1016.8 1363.4 1010.14 1435.4 1026.92C1507.4 1043.71 1577.36 1087.01 1615.04 1156.07C1652.72 1225.13 1650.68 1321.48 1599.32 1377.73" stroke="#6CB9AD" stroke-miterlimit="10"/>
<path d="M143.961 65.3439C196.041 39.4626 259.041 42.7939 308.841 72.3908C358.761 101.988 394.401 157.722 405.681 225.372C416.361 289.434 405.441 362.338 434.601 421.916C466.281 486.106 538.641 516.6 605.121 511.475C669.201 506.606 727.881 474.319 785.961 445.363C846.921 414.869 911.001 386.169 978.801 383.991C1043.96 381.941 1115.12 414.356 1141.52 479.316C1164.32 535.306 1149.2 599.753 1133.12 658.05C1113.8 727.75 1093.76 797.066 1074.32 866.766C1060.04 918.4 1048.64 981.438 1083.2 1021.03C1115.84 1058.44 1170.44 1053.19 1217 1046.14C1288.16 1035.25 1361.24 1028.08 1431.92 1044.48C1502.84 1060.88 1571.36 1103.8 1608.44 1171.83C1645.52 1239.87 1643.84 1334.29 1594.4 1390.41" stroke="#6CB9AD" stroke-miterlimit="10"/>
<path d="M186.199 42.7935C237.679 27.1623 294.199 40.7435 335.119 74.6966C376.159 108.65 400.879 163.103 406.759 232.29C412.279 296.481 400.279 370.537 428.239 432.165C458.239 498.15 529.879 532.743 597.199 529.284C659.719 526.081 717.199 494.819 774.559 468.297C837.799 438.828 904.399 412.434 974.359 410.128C1038.92 408.078 1109.48 438.315 1136.72 501.865C1160.36 556.703 1146.56 620.765 1130.96 678.806C1112.36 747.353 1092.2 815.387 1073.36 883.806C1059.32 935.44 1049 998.35 1083.44 1037.94C1116.2 1075.61 1171.04 1071.25 1217.84 1064.33C1287.68 1053.83 1359.2 1046.4 1428.56 1062.28C1498.28 1078.3 1565.6 1120.97 1601.96 1187.97C1638.32 1254.98 1637 1347.49 1589.48 1403.48" stroke="#6CB9AD" stroke-miterlimit="10"/>
<path d="M228.559 20.2442C279.319 14.991 329.359 38.566 361.519 76.8754C393.559 115.057 407.479 168.357 407.839 239.21C408.199 303.272 395.119 378.738 421.879 442.288C450.319 510.066 520.999 548.76 589.279 546.966C650.359 545.428 706.639 515.319 763.159 490.975C828.679 462.66 897.799 438.444 969.799 435.882C1033.64 433.832 1103.72 461.891 1131.92 523.903C1156.4 577.588 1144.04 641.394 1128.8 698.922C1110.8 766.316 1090.64 832.941 1072.52 900.207C1058.84 951.969 1049.36 1014.62 1083.8 1054.21C1116.68 1092.14 1171.64 1088.68 1218.8 1082.02C1287.32 1072.15 1357.4 1064.08 1425.32 1079.58C1493.96 1095.21 1559.96 1137.49 1595.48 1203.48C1631.12 1269.46 1630.16 1359.92 1584.56 1415.91" stroke="#6CB9AD" stroke-miterlimit="10"/>
<path d="M270.92 -2.30563C320.96 2.81937 364.64 36.26 387.92 79.1819C410.96 121.463 414.2 173.482 408.92 246.129C404.24 310.063 389.96 386.938 415.4 452.538C442.4 521.982 512.12 568.235 581.24 564.776C640.64 561.701 696.08 536.076 751.64 513.782C819.56 486.619 891.08 464.582 965.12 461.891C1028.36 459.713 1097.84 485.722 1126.88 546.197C1152.2 598.601 1141.16 662.151 1126.4 719.294C1109.12 785.535 1088.6 850.751 1071.32 916.991C1057.76 968.754 1049.48 1031.15 1083.68 1070.87C1116.68 1109.05 1171.88 1106.49 1219.16 1099.95C1286.24 1090.6 1354.88 1082.14 1421.48 1097.26C1488.92 1112.51 1553.6 1154.53 1588.52 1219.49C1623.44 1284.45 1622.84 1372.99 1579.28 1428.85" stroke="#6CB9AD" stroke-miterlimit="10"/>
<path d="M313.281 -24.8567C362.601 -9.35356 399.801 33.8246 414.321 81.3589C428.361 127.612 421.161 178.478 410.121 253.046C400.641 316.853 385.041 395.137 409.161 462.787C434.601 534.025 503.361 584.89 573.441 582.584C631.401 580.662 685.641 556.831 740.241 536.715C810.561 510.834 884.481 490.846 960.681 488.028C1023.32 485.85 1092.2 509.681 1122.08 568.746C1148.12 619.996 1138.52 683.29 1124.24 740.05C1107.56 805.137 1087.04 869.071 1070.36 934.031C1057.04 985.793 1049.72 1048.06 1083.92 1087.65C1117.04 1126.09 1172.36 1124.42 1220 1118.02C1285.76 1109.18 1352.96 1100.21 1418.12 1114.94C1484.48 1129.81 1547.84 1171.57 1582.04 1235.38C1616.24 1299.19 1616.12 1385.8 1574.36 1441.53" stroke="#6CB9AD" stroke-miterlimit="10"/>
<path d="M355.52 -47.4066C404.24 -21.6535 435.08 31.3903 440.6 83.6653C445.88 133.89 428.12 183.603 411.08 259.965C396.92 323.515 379.76 403.337 402.68 473.037C426.56 546.068 494.36 596.806 565.52 600.393C621.92 603.212 675.32 577.715 728.84 559.522C801.68 534.922 878 516.984 956.12 513.909C1018.04 511.731 1086.32 533.384 1117.16 590.912C1144.04 640.881 1135.88 703.918 1121.96 760.293C1106.12 824.228 1085.36 886.753 1069.28 950.559C1056.2 1002.32 1049.96 1064.46 1084.04 1104.05C1117.28 1142.75 1172.72 1141.98 1220.72 1135.83C1285.16 1127.5 1350.8 1118.15 1414.64 1132.37C1479.8 1146.85 1541.96 1188.23 1575.44 1251.01C1608.92 1313.79 1609.16 1398.48 1569.32 1454.09" stroke="#6CB9AD" stroke-miterlimit="10"/>
<path d="M397.88 -69.9554C445.88 -33.8242 470.6 28.9571 467 85.8446C463.52 139.913 435.32 188.729 412.28 266.757C393.56 330.179 374.84 411.41 396.32 483.16C418.76 557.857 485.48 612.566 557.6 618.076C612.44 622.176 664.88 598.473 717.44 582.329C792.8 559.138 871.4 542.995 951.56 539.92C1012.88 537.613 1080.56 557.088 1112.36 613.207C1140.08 662.023 1133.24 724.804 1119.8 780.666C1104.68 843.448 1083.8 904.563 1068.32 967.345C1055.6 1019.11 1050.2 1080.99 1084.28 1120.71C1117.76 1159.66 1173.2 1159.79 1221.44 1153.77C1284.44 1145.95 1348.76 1136.21 1411.28 1149.92C1475.36 1164.02 1536.08 1205.14 1568.96 1266.9C1601.84 1328.66 1602.32 1411.3 1564.52 1466.9" stroke="#6CB9AD" stroke-miterlimit="10"/>
<path d="M440.241 -92.5065C487.521 -45.9971 506.121 26.5217 493.401 88.1498C481.281 146.19 442.641 193.853 413.361 273.803C390.201 337.097 369.681 419.609 389.961 493.537C410.841 569.9 476.601 628.325 549.681 635.884C602.961 641.265 654.561 619.612 706.041 605.134C783.921 583.353 864.801 569.131 947.001 565.8C1007.6 563.494 1074.8 580.79 1107.44 635.5C1136 683.034 1130.6 745.559 1117.52 801.165C1103 862.794 1082.12 922.628 1067.24 984.128C1054.76 1036.02 1050.44 1097.65 1084.4 1137.37C1118 1176.57 1173.68 1177.6 1222.16 1171.83C1283.84 1164.4 1346.6 1154.28 1407.8 1167.73C1470.68 1181.44 1530.2 1222.31 1562.36 1282.92C1594.52 1343.65 1595.36 1424.37 1559.48 1479.84" stroke="#6CB9AD" stroke-miterlimit="10"/>
<path d="M482.601 -115.056C529.281 -58.297 541.761 24.0874 519.801 90.328C499.161 152.469 450.081 199.106 414.441 280.594C386.841 343.887 364.641 427.681 383.601 503.531C403.041 581.687 467.721 643.956 541.761 653.565C593.481 660.228 644.121 640.497 694.641 627.94C775.161 607.825 858.201 595.268 942.561 591.809C1002.56 589.503 1069.16 604.622 1102.64 657.793C1132.04 704.175 1127.96 766.444 1115.36 821.537C1101.56 882.012 1080.56 940.437 1066.4 1000.78C1054.16 1052.67 1050.8 1114.17 1084.76 1153.89C1118.48 1193.36 1174.28 1195.28 1223.12 1189.64C1283.48 1182.72 1344.8 1172.22 1404.56 1185.16C1466.36 1198.48 1524.44 1238.97 1556 1298.67C1587.56 1358.38 1588.76 1437.05 1554.68 1492.53" stroke="#6CB9AD" stroke-miterlimit="10"/>
<path d="M524.959 -137.606C570.919 -70.4688 577.399 21.9093 546.199 92.6343C516.919 158.875 457.639 204.487 415.639 287.641C383.719 350.934 359.719 436.009 377.239 513.909C395.239 593.859 458.839 659.844 533.839 671.503C584.119 679.319 633.799 661.894 683.239 650.875C766.279 632.425 851.599 621.534 937.999 617.819C997.399 615.384 1063.4 628.453 1097.84 680.215C1128.08 725.315 1125.32 787.328 1113.2 842.037C1100.12 901.359 1079 958.375 1065.44 1017.7C1053.56 1069.59 1051.16 1130.96 1085 1170.55C1118.84 1210.27 1174.76 1213.09 1223.84 1207.71C1282.76 1201.17 1342.64 1190.28 1401.08 1202.84C1461.68 1215.78 1518.56 1256.01 1549.4 1314.56C1580.24 1373.12 1581.8 1449.99 1549.76 1505.21" stroke="#6CB9AD" stroke-miterlimit="10"/>
<path d="M567.2 -160.156C612.44 -82.6406 612.92 19.6032 572.48 94.8125C534.68 165.153 465.08 209.869 416.6 294.431C380.36 357.725 354.56 444.081 370.76 524.031C387.32 605.647 449.96 675.219 525.92 689.056C574.64 698.025 623.48 682.906 671.84 673.553C757.52 657.025 845 647.544 933.44 643.7C992.12 641.266 1057.64 652.156 1092.92 702.381C1124 746.328 1122.56 808.084 1110.92 862.409C1098.44 920.578 1077.32 976.313 1064.36 1034.35C1052.72 1086.37 1051.28 1147.36 1085.12 1187.08C1119.08 1227.05 1175.24 1230.64 1224.56 1225.52C1282.16 1219.49 1340.6 1208.22 1397.6 1220.39C1457.12 1233.08 1512.68 1272.92 1542.8 1330.45C1572.92 1387.98 1574.84 1462.8 1544.72 1518.03" stroke="#6CB9AD" stroke-miterlimit="10"/>
<path d="M609.56 -182.706C654.08 -94.8124 648.56 17.4251 598.76 97.1188C552.32 171.559 472.64 215.378 417.56 301.478C377 365.028 349.4 452.281 364.28 534.409C379.4 617.819 440.96 690.85 517.88 706.994C565.04 716.988 613.04 704.303 660.32 696.488C748.64 682.009 838.4 673.81 928.76 669.71C986.84 667.275 1051.76 675.988 1087.88 724.675C1119.8 767.469 1119.68 828.841 1108.52 882.781C1096.76 939.797 1075.52 994.122 1063.16 1051.01C1051.88 1103.03 1051.4 1163.89 1085.12 1203.61C1119.2 1243.84 1175.48 1248.32 1225.16 1243.33C1281.44 1237.69 1338.32 1226.03 1394 1237.82C1452.44 1250.12 1506.56 1289.58 1535.96 1346.08C1565.36 1402.58 1567.64 1475.49 1539.44 1530.58" stroke="#6CB9AD" stroke-miterlimit="10"/>
<path d="M651.919 -205.256C695.839 -107.112 684.079 15.247 625.159 99.4251C570.079 178.094 480.319 221.016 418.759 308.397C373.879 372.075 344.479 460.481 357.919 544.66C371.599 629.735 432.199 706.225 509.959 724.803C555.679 735.822 602.719 725.7 648.919 719.422C739.879 707.122 831.799 700.075 924.319 695.847C981.679 693.285 1046 699.947 1083.2 747.225C1115.96 788.738 1117.16 849.853 1106.48 903.41C1095.2 959.272 1074.08 1012.32 1062.32 1067.92C1051.28 1119.94 1051.76 1180.67 1085.36 1220.39C1119.56 1260.88 1175.96 1266.26 1225.88 1261.52C1280.72 1256.27 1336.28 1244.35 1390.64 1255.63C1447.88 1267.54 1500.8 1306.75 1529.48 1362.1C1558.16 1417.45 1560.92 1488.43 1534.64 1543.52" stroke="#6CB9AD" stroke-miterlimit="10"/>
<path d="M694.281 -227.806C737.481 -119.284 719.721 12.9409 651.561 101.603C587.961 184.5 488.001 226.525 419.841 315.188C370.761 379.122 339.561 468.553 351.561 554.653C363.921 641.394 423.441 721.216 502.041 742.356C546.321 754.272 592.401 746.841 637.401 741.972C730.881 731.978 825.081 725.956 919.641 721.472C976.401 718.91 1040.12 723.394 1078.16 769.135C1111.76 809.494 1114.28 870.353 1104.08 923.525C1093.52 978.235 1072.52 1029.87 1061.12 1084.45C1050.56 1136.6 1051.88 1197.07 1085.36 1236.79C1119.8 1277.53 1176.2 1283.56 1226.48 1279.2C1280 1274.33 1334 1262.16 1387.04 1272.92C1443.2 1284.45 1494.8 1323.4 1522.76 1377.73C1550.84 1432.05 1553.84 1501.11 1529.48 1556.08" stroke="#6CB9AD" stroke-miterlimit="10"/>
<path d="M736.639 -250.357C779.119 -131.457 755.359 10.8898 677.959 103.909C605.719 191.034 495.679 232.418 421.039 322.234C367.639 386.552 334.519 476.88 345.319 565.03C356.119 653.565 414.919 736.462 494.239 760.293C537.079 773.105 582.079 768.365 626.119 765.034C722.239 757.602 818.599 752.221 915.199 747.737C971.359 745.174 1034.48 747.48 1073.36 791.684C1107.8 830.762 1111.64 891.365 1101.92 944.152C1091.96 997.709 1070.84 1048.06 1060.28 1101.36C1049.96 1153.51 1052.24 1213.73 1085.72 1253.57C1120.28 1294.57 1176.92 1301.49 1227.44 1297.39C1279.64 1292.91 1332.2 1280.35 1383.8 1290.86C1438.76 1302.01 1489.04 1340.57 1516.4 1393.87C1543.76 1447.17 1547.12 1514.18 1524.68 1569.02" stroke="#6CB9AD" stroke-miterlimit="10"/>
<path d="M778.881 -272.906C820.641 -143.756 790.761 8.71284 704.241 106.088C623.361 197.313 503.241 238.057 422.001 329.025C364.281 393.6 329.361 484.825 338.721 575.153C348.081 665.482 406.041 751.325 486.201 777.975C527.601 791.685 571.641 789.763 614.601 787.713C713.241 782.972 811.881 778.232 910.521 773.619C965.961 770.928 1028.6 771.185 1068.32 813.978C1103.48 851.903 1108.76 912.25 1099.52 964.525C1090.28 1016.93 1069.04 1065.87 1059.08 1118.02C1049.12 1170.17 1052.24 1230.26 1085.72 1269.98C1120.4 1311.23 1177.16 1319.05 1227.92 1315.08C1278.68 1311.1 1329.8 1298.16 1380.08 1308.16C1433.96 1318.92 1482.92 1357.23 1509.56 1409.5C1536.2 1461.78 1539.92 1526.87 1519.52 1581.58" stroke="#6CB9AD" stroke-miterlimit="10"/>
</g>
<mask id="mask1_752_5138" style="mask-type:luminance" maskUnits="userSpaceOnUse" x="0" y="0" width="1440" height="1025">
<path d="M1440 0H0V1025H1440V0Z" fill="white"/>
</mask>
<g mask="url(#mask1_752_5138)">
<path d="M-0.71875 -39.4635C60.2412 -33.1853 116.761 9.48029 142.681 68.674C168.601 127.868 162.961 201.54 128.281 255.48C96.3612 305.193 42.2413 338.89 23.0413 395.521C2.52125 456.38 32.6413 528.515 84.1213 562.596C175.321 622.815 304.081 574.383 368.401 491.743C391.201 462.53 405.481 427.937 431.761 401.671C473.521 359.902 523.321 352.215 574.441 330.818C624.001 310.061 666.481 271.368 693.001 222.04C727.921 157.208 742.681 47.4053 698.401 -17.0416C674.281 -52.1478 628.921 -72.2635 590.641 -57.0166L-0.71875 -39.4635Z" fill="#6CB9AD"/>
</g>
<mask id="mask2_752_5138" style="mask-type:luminance" maskUnits="userSpaceOnUse" x="0" y="0" width="1440" height="1025">
<path d="M1440 0H0V1025H1440V0Z" fill="white"/>
</mask>
<g mask="url(#mask2_752_5138)">
<path d="M1658.28 684.444C1600.44 657.025 1533.84 658.563 1471.68 671.631C1378.44 691.234 1290.24 735.694 1194.48 741.331C1116.48 745.944 1051.92 716.731 988.201 671.631C946.081 641.778 905.281 608.85 858.481 587.453C732.721 530.053 571.081 576.05 488.761 692.644C437.041 765.931 416.161 858.053 378.961 940.694C341.761 1023.33 276.601 1103.67 190.801 1108.79V1205.53H1658.4L1658.28 684.444Z" fill="#6CB9AD"/>
</g>
<mask id="mask3_752_5138" style="mask-type:luminance" maskUnits="userSpaceOnUse" x="0" y="0" width="1440" height="1025">
<path d="M1440 0H0V1025H1440V0Z" fill="white"/>
</mask>
<g mask="url(#mask3_752_5138)">
<path d="M262.32 -64.9595C322.44 -93.5314 394.56 -90.072 452.04 -55.8626C509.64 -21.6533 551.4 42.6655 562.08 113.391C575.64 203.334 541.8 301.094 576.36 384.119C605.64 454.459 674.88 492 737.76 527.106C800.76 562.34 867.96 608.081 885.84 682.906C897.96 733.387 885.24 790.916 908.88 836.144C933 882.141 987.6 899.053 1035.84 893.928C1084.08 888.931 1129.2 866.637 1176 852.544C1317.6 809.622 1477.2 844.984 1592.28 945.05" stroke="#6CB9AD" stroke-miterlimit="10"/>
<path d="M256.199 -62.3963C293.999 -79.9495 336.599 -84.4338 376.679 -76.362C401.039 -71.4932 424.559 -62.012 445.679 -48.3026C459.719 -39.0776 472.679 -28.0588 484.319 -15.6307C512.159 14.3505 532.079 52.5318 543.599 94.3005C546.359 104.294 548.639 114.416 550.319 124.666C556.199 159.516 556.199 195.007 555.959 229.6C555.599 274.572 554.639 318.263 566.999 359.007C569.759 367.975 573.119 376.944 577.319 385.657C592.439 417.176 616.079 441.776 643.439 463.172C673.919 487.004 709.079 506.991 741.119 526.85C745.439 529.541 749.759 532.232 754.079 535.05C785.399 555.422 815.399 578.613 838.559 607.057C857.039 629.607 871.079 655.744 877.079 686.494C880.319 702.894 881.039 720.063 881.159 737.232C881.639 772.85 879.959 809.366 895.919 840.244C916.799 880.475 961.319 898.029 1004.16 898.669C1010.16 898.797 1016.04 898.541 1021.92 898.029C1069.8 893.672 1114.68 873.044 1161 860.488C1172.64 857.285 1184.4 854.722 1196.16 852.544C1261.56 840.885 1329.12 845.754 1392.12 865.229C1454.88 884.704 1512.72 918.657 1560.36 963.5" stroke="#6CB9AD" stroke-miterlimit="10"/>
<path d="M250.078 -59.7063C288.358 -77.0032 331.318 -80.4626 371.278 -71.1094C395.518 -65.4719 418.678 -55.0938 439.198 -40.4876C452.878 -30.7501 465.358 -19.2188 476.278 -6.27817C502.558 24.7281 520.318 63.5499 531.598 105.575C534.358 115.697 536.638 125.947 538.558 136.197C545.158 171.175 546.958 206.025 548.518 239.466C550.558 282.772 552.238 323.9 566.518 362.337C569.638 370.794 573.358 379.25 577.918 387.45C594.238 417.175 618.718 440.494 646.558 461.506C677.638 484.825 713.038 505.709 743.998 526.85C748.198 529.669 752.278 532.616 756.358 535.562C786.238 557.344 813.358 581.431 833.998 610.387C850.558 633.322 862.798 659.587 867.598 690.209C870.118 706.609 870.238 723.778 869.878 740.947C869.158 776.566 866.398 813.209 882.358 844.6C902.878 884.575 947.278 901.744 989.758 902.769C995.638 902.897 1001.52 902.769 1007.4 902.256C1054.92 898.541 1099.56 879.578 1145.4 868.559C1156.92 865.741 1168.56 863.562 1180.2 861.897C1244.76 852.416 1311 859.462 1371.36 881.116C1431.48 902.641 1485.24 938.387 1528.08 982.334" stroke="#014752" stroke-miterlimit="10"/>
<path d="M244.078 -57.0156C282.838 -73.9281 326.278 -76.6188 366.118 -65.9844C390.238 -59.5781 413.038 -48.3031 432.838 -32.8C446.038 -22.55 458.038 -10.5062 468.358 2.9469C493.078 34.9782 508.558 74.3125 519.838 116.85C522.478 127.1 524.998 137.35 527.038 147.6C534.238 182.578 537.958 217.044 541.438 249.203C545.998 290.972 550.318 329.409 566.398 365.413C569.998 373.356 574.078 381.3 578.998 388.988C596.518 416.919 621.838 438.956 650.278 459.456C681.958 482.391 717.598 503.916 747.478 526.466C751.558 529.541 755.518 532.616 759.358 535.691C787.798 558.753 812.038 583.994 830.278 613.334C844.798 636.653 855.478 663.047 858.838 693.669C860.638 710.069 860.158 727.109 859.198 744.278C857.278 779.769 853.438 816.797 869.398 848.444C889.678 888.163 933.838 905.075 975.958 906.356C981.838 906.484 987.598 906.484 993.358 906.1C1040.52 903.025 1084.92 885.6 1130.28 876.247C1141.68 873.813 1153.2 872.019 1164.72 870.738C1228.44 863.434 1293.36 872.788 1351.2 896.363C1408.8 919.938 1458.36 957.478 1496.28 1000.53" stroke="#02515B" stroke-miterlimit="10"/>
<path d="M237.961 -54.3246C277.201 -70.9809 321.121 -72.7746 360.721 -60.7309C384.721 -53.5559 407.161 -41.2559 426.361 -25.1121C439.201 -14.3496 450.601 -1.66525 460.201 12.0441C483.361 45.1004 496.681 85.0754 507.721 127.997C510.361 138.375 512.881 148.754 515.281 159.004C523.201 194.11 528.721 228.063 534.121 258.941C541.201 299.044 548.161 334.919 566.161 368.616C570.121 376.047 574.681 383.35 579.841 390.653C598.681 416.791 624.721 437.547 653.641 457.663C685.921 480.085 721.681 502.507 750.601 526.338C754.441 529.541 758.281 532.744 762.001 536.204C789.001 560.675 810.361 586.813 826.201 616.794C838.801 640.497 847.801 667.019 849.841 697.641C850.921 714.041 849.841 731.082 848.281 748.122C845.281 783.485 840.121 820.897 856.201 852.928C876.001 892.519 920.161 908.919 961.921 910.585C967.681 910.841 973.561 910.841 979.201 910.457C1026 908.022 1070.16 892.263 1115.04 884.447C1126.32 882.525 1137.72 880.988 1149 880.091C1211.88 874.966 1275.48 886.625 1330.68 912.25C1385.64 937.875 1431.12 977.21 1464.12 1019.36" stroke="#025B64" stroke-miterlimit="10"/>
<path d="M231.84 -51.6342C271.56 -68.0342 315.96 -68.931 355.44 -55.606C379.32 -47.5342 401.4 -34.4654 420 -17.4248C432.48 -6.02169 443.28 7.04708 452.28 21.269C473.88 55.3502 484.92 95.9658 495.84 139.272C498.48 149.778 501.12 160.156 503.64 170.406C512.16 205.513 519.6 239.081 526.92 268.678C536.4 307.244 546.12 340.556 565.92 371.819C570.36 378.738 575.16 385.528 580.8 392.319C600.84 416.663 627.72 436.138 657.24 455.869C690.24 477.778 726.12 501.097 753.96 526.21C757.68 529.541 761.28 533 764.76 536.588C790.32 562.469 808.68 589.631 822.12 619.997C832.8 644.085 840.12 670.863 840.84 701.356C841.2 717.756 839.52 734.797 837.48 751.838C833.28 787.072 827.04 824.869 843.12 857.157C862.68 896.491 906.6 912.635 948 914.556C953.76 914.813 959.52 914.813 965.16 914.685C1011.6 912.891 1055.52 898.797 1099.92 892.519C1111.08 890.981 1122.24 889.828 1133.52 889.316C1195.56 886.369 1257.72 900.206 1310.4 928.01C1362.84 955.685 1404.24 996.813 1432.2 1038.07" stroke="#02646D" stroke-miterlimit="10"/>
<path d="M225.719 -48.9434C265.919 -65.0872 310.799 -64.9591 350.039 -50.3528C373.799 -41.5122 395.519 -27.5466 413.519 -9.60909C425.519 2.30654 435.839 15.8878 444.239 30.4941C464.159 65.7284 473.039 106.728 483.839 150.547C486.479 161.182 489.119 171.56 491.879 181.938C501.119 217.172 510.239 250.1 519.599 278.544C531.599 315.444 543.959 346.194 565.679 375.15C570.479 381.557 575.759 387.835 581.639 394.113C602.879 416.663 630.599 434.857 660.599 454.203C694.199 475.728 730.319 499.816 757.079 526.21C760.679 529.797 764.159 533.385 767.399 537.1C791.519 564.263 806.999 592.45 818.039 623.328C826.679 647.8 832.439 674.707 831.719 705.2C831.359 721.6 829.079 738.641 826.439 755.553C821.039 790.66 813.719 828.841 829.799 861.513C848.999 900.719 892.799 916.35 933.839 918.657C939.599 919.041 945.239 919.041 950.879 918.913C996.839 917.76 1040.64 905.203 1084.56 900.591C1095.6 899.438 1106.64 898.797 1117.8 898.669C1179 897.9 1239.84 914.044 1289.88 943.897C1339.68 973.622 1377 1016.54 1400.04 1056.9" stroke="#026E77" stroke-miterlimit="10"/>
<path d="M219.719 -46.3811C260.279 -62.2686 305.759 -61.2436 344.759 -45.3561C368.399 -35.7467 389.759 -20.8843 407.159 -2.04989C418.799 10.3782 428.519 24.472 436.199 39.5907C454.559 75.8501 461.279 117.491 471.959 161.694C474.479 172.328 477.359 182.963 480.239 193.341C490.079 228.575 501.119 261.119 512.399 288.281C526.919 323.644 541.799 351.703 565.439 378.225C570.599 384.119 576.239 389.885 582.599 395.65C605.039 416.406 633.719 433.447 664.199 452.153C698.399 473.166 734.759 498.022 760.439 525.953C763.919 529.669 767.159 533.513 770.279 537.356C792.959 565.928 805.559 595.013 814.079 626.403C820.799 651.131 824.759 678.294 822.839 708.659C821.759 725.059 818.879 741.972 815.639 759.013C809.159 794.119 800.639 832.428 816.599 865.485C835.559 904.435 879.119 919.81 919.799 922.372C925.439 922.756 931.079 922.884 936.719 922.884C982.319 922.5 1025.88 911.481 1069.32 908.406C1080.24 907.638 1091.16 907.381 1102.08 907.638C1162.44 909.047 1221.96 927.497 1269.36 959.272C1316.64 991.047 1349.76 1035.76 1368 1075.23" stroke="#027880" stroke-miterlimit="10"/>
<path d="M213.6 -43.6905C254.64 -59.3217 300.48 -57.3998 339.48 -40.103C363 -29.7248 384 -13.8374 400.8 5.63765C411.96 18.7064 421.2 33.3127 428.28 48.8158C445.08 86.1002 449.52 128.253 460.08 172.969C462.6 183.731 465.48 194.366 468.6 204.744C479.04 240.106 492 272.138 505.2 298.019C522.24 331.716 539.76 357.341 565.2 381.428C570.84 386.681 576.84 392.063 583.44 397.316C607.2 416.278 636.6 432.038 667.68 450.36C702.48 470.86 739.08 496.613 763.56 525.825C766.8 529.669 769.92 533.769 772.92 537.741C794.16 567.722 803.88 597.703 810 629.606C814.8 654.719 817.08 682.01 813.84 712.375C812.04 728.775 808.56 745.688 804.84 762.6C797.16 797.578 787.56 836.272 803.52 869.713C822.12 908.406 865.56 923.397 905.88 926.344C911.52 926.728 917.04 926.985 922.56 926.985C967.8 927.241 1011.12 917.888 1054.2 916.35C1065 915.966 1075.8 916.094 1086.6 916.735C1146.12 920.322 1204.2 941.078 1249.08 974.903C1293.72 1008.73 1322.76 1055.24 1336.08 1093.8" stroke="#038189" stroke-miterlimit="10"/>
<path d="M207.48 -41.0001C249 -56.3751 295.32 -53.5563 334.08 -34.9782C357.48 -23.8313 378.12 -7.04698 394.32 13.3249C405.12 26.9061 413.88 42.0249 420.24 57.9124C435.48 96.2218 437.76 139.016 448.08 184.116C450.6 195.006 453.6 205.769 456.84 216.147C468 251.637 482.76 283.028 497.88 307.884C517.32 340.044 537.48 362.978 564.96 384.759C570.96 389.5 577.44 394.369 584.28 399.109C609.24 416.278 639.48 430.756 671.04 448.694C706.44 468.809 743.28 495.331 766.68 525.825C769.8 529.925 772.8 534.025 775.44 538.381C795.24 569.644 802.08 600.65 805.68 633.066C808.56 658.562 809.16 686.109 804.6 716.347C802.08 732.747 798 749.659 793.68 766.572C784.8 801.422 774.12 840.5 790.08 874.197C808.32 912.762 851.76 927.369 891.6 930.572C897.12 931.084 902.76 931.341 908.16 931.469C953.04 932.366 996.12 924.55 1038.72 924.678C1049.4 924.678 1060.08 925.191 1070.76 926.216C1129.44 931.981 1186.2 954.916 1228.44 990.919C1270.44 1026.79 1295.52 1075.1 1303.8 1112.77" stroke="#038B92" stroke-miterlimit="10"/>
<path d="M201.48 -38.3091C243.48 -53.4278 290.28 -49.7122 328.92 -29.7247C352.2 -17.809 372.48 -0.127811 387.96 21.1409C398.28 35.2347 406.56 50.8659 412.32 67.2659C426 106.6 426 150.035 436.2 195.519C438.72 206.538 441.72 217.3 445.2 227.678C456.96 263.169 473.64 294.175 490.68 317.75C512.64 348.244 535.44 368.616 564.72 388.091C571.2 392.319 577.92 396.547 585.24 400.903C611.4 416.278 642.48 429.475 674.64 446.9C710.64 466.503 747.72 493.922 770.04 525.697C773.04 529.925 775.801 534.282 778.321 538.766C796.561 571.438 800.64 603.341 801.84 636.269C802.8 662.022 801.601 689.825 795.721 720.063C792.481 736.463 787.8 753.375 782.88 770.16C772.8 804.882 761.04 844.216 777 878.425C795 916.735 838.2 930.957 877.68 934.544C883.2 935.057 888.721 935.441 894.121 935.569C938.641 937.107 981.48 930.957 1023.6 932.622C1034.16 933.007 1044.72 933.903 1055.28 935.441C1113.12 943.257 1168.56 968.625 1208.16 1006.68C1247.64 1044.6 1268.52 1094.7 1271.88 1131.47" stroke="#03959B" stroke-miterlimit="10"/>
<path d="M195.359 -35.6189C237.839 -50.4814 285.119 -45.7408 323.519 -24.6002C346.799 -11.9158 366.599 6.79042 381.479 28.6998C391.439 43.306 399.119 59.5779 404.159 76.3623C416.279 116.722 414.119 160.669 424.079 206.665C426.479 217.812 429.719 228.703 433.319 239.081C445.799 274.7 464.279 305.194 483.119 327.487C507.599 356.444 532.919 374.253 564.239 391.165C571.079 394.881 578.279 398.597 585.839 402.44C613.319 416.022 645.119 427.937 677.759 444.978C714.359 464.069 751.559 492.256 772.919 525.44C775.799 529.925 778.439 534.409 780.719 539.022C797.519 573.103 798.719 605.903 797.519 639.344C796.559 665.481 793.679 693.412 786.479 723.65C782.519 740.05 777.239 756.834 771.719 773.747C760.559 808.34 747.599 848.059 763.559 882.525C781.199 920.578 824.279 934.416 863.399 938.387C868.799 938.9 874.319 939.412 879.719 939.669C923.879 941.847 966.479 937.362 1008.12 940.565C1018.56 941.334 1029 942.744 1039.32 944.537C1096.2 954.531 1150.44 982.206 1187.4 1022.18C1224.24 1062.16 1241.04 1114.05 1239.48 1149.92" stroke="#039EA4" stroke-miterlimit="10"/>
<path d="M189.238 -32.9282C232.198 -47.5344 279.958 -41.8969 318.238 -19.3469C341.398 -5.76569 360.838 13.7093 375.118 36.5156C384.598 51.7624 391.798 68.4187 396.238 85.5875C406.798 127.1 402.358 171.559 412.318 217.812C414.718 229.087 417.958 239.978 421.798 250.484C434.878 286.103 455.278 316.212 476.038 337.225C502.918 364.515 530.998 379.762 564.118 394.369C571.318 397.572 578.998 400.775 586.918 404.106C615.598 415.894 648.238 426.528 681.478 443.184C718.678 461.891 756.118 490.847 776.398 525.312C779.158 529.925 781.558 534.666 783.598 539.406C798.958 574.769 797.278 608.722 793.558 642.547C790.678 669.069 786.118 697.128 777.598 727.237C772.918 743.637 767.038 760.422 761.038 777.206C748.678 811.8 734.638 851.775 750.598 886.625C767.998 924.55 810.838 938.003 849.598 942.231C854.998 942.872 860.398 943.256 865.798 943.641C909.598 946.459 951.958 943.64 993.118 948.381C1003.44 949.534 1013.76 951.328 1023.96 953.506C1080 965.678 1132.8 995.659 1167.24 1037.68C1201.56 1079.71 1214.16 1133.39 1207.68 1168.37" stroke="#03A8AD" stroke-miterlimit="10"/>
<path d="M183.119 -30.3654C226.559 -44.5873 274.799 -38.181 312.839 -14.3498C335.879 0.000241185 354.959 20.3721 368.639 44.0752C377.759 59.8346 384.359 77.0033 388.199 94.6846C397.199 137.222 390.599 182.194 400.319 228.96C402.719 240.363 406.079 251.381 410.039 261.76C423.839 297.506 445.919 326.975 468.719 346.835C498.119 372.588 528.719 385.144 563.879 397.444C571.559 400.135 579.479 402.825 587.759 405.516C617.639 415.51 651.239 424.863 684.839 441.135C722.639 459.328 760.319 489.181 779.519 524.928C782.039 529.669 784.319 534.666 786.239 539.663C800.159 576.435 795.719 611.285 789.479 645.622C784.679 672.4 778.319 700.716 768.479 730.825C763.079 747.353 756.599 764.01 749.999 780.794C736.439 815.26 721.319 855.491 737.279 890.725C754.319 928.394 797.039 941.463 835.439 946.075C840.839 946.716 846.119 947.228 851.519 947.741C894.959 951.328 937.079 949.919 977.759 956.325C987.959 957.863 998.159 960.041 1008.24 962.731C1063.44 977.081 1114.92 1009.24 1146.72 1053.44C1178.4 1097.52 1186.92 1153 1175.64 1187.08" stroke="#03B2B6" stroke-miterlimit="10"/>
<path d="M177.119 -27.674C220.919 -41.6397 269.639 -34.3365 307.679 -9.09592C330.599 6.02283 349.319 27.2916 362.399 51.8916C371.039 68.1635 377.159 85.8447 380.279 103.91C387.719 147.473 378.839 193.085 388.439 240.235C390.719 251.767 394.199 262.785 398.399 273.292C412.799 309.038 436.799 338.123 461.519 356.701C493.439 380.788 526.679 390.91 563.639 400.776C571.679 402.954 580.079 405.132 588.719 407.31C619.799 415.51 654.239 423.582 688.439 439.342C726.839 457.023 764.759 487.773 782.879 524.801C785.279 529.798 787.439 534.795 789.119 540.048C801.599 578.101 794.279 613.976 785.519 648.826C778.799 675.988 770.759 704.56 759.599 734.542C753.479 751.07 746.399 767.726 739.199 784.382C724.559 818.72 708.239 859.335 724.199 894.954C740.999 932.367 783.479 945.179 821.519 950.048C826.799 950.689 832.079 951.329 837.359 951.842C880.439 956.07 922.319 956.326 962.519 964.27C972.599 966.32 982.679 968.754 992.519 971.829C1046.88 988.357 1097.04 1022.82 1126.2 1069.08C1155.36 1115.2 1159.8 1172.47 1143.48 1205.66" stroke="#04BBBF" stroke-miterlimit="10"/>
<path d="M171 -24.9847C215.28 -38.6941 264.48 -30.3659 302.28 -3.97219C325.08 11.9153 343.44 34.2091 355.92 59.4497C364.2 76.3622 369.72 94.556 372.24 113.006C378.12 157.593 367.08 203.718 376.44 251.381C378.72 263.04 382.2 274.059 386.64 284.565C401.76 320.44 427.56 349.012 454.2 366.309C488.64 388.859 524.4 396.29 563.28 403.722C571.8 405.387 580.44 407.053 589.44 408.718C621.84 415.125 657 421.915 691.68 437.29C730.8 454.587 768.84 486.106 785.88 524.415C788.16 529.54 790.08 534.793 791.64 540.175C802.68 579.637 792.48 616.409 781.32 651.772C772.68 679.318 762.84 708.018 750.48 738C743.76 754.784 736.08 771.44 728.28 788.097C712.44 822.306 695.04 863.306 711 899.181C727.56 936.465 769.8 948.765 807.48 954.018C812.76 954.787 818.04 955.428 823.2 956.068C865.8 960.937 907.44 962.859 947.28 972.34C957.24 974.775 967.2 977.593 976.92 981.053C1030.44 999.759 1079.16 1036.53 1105.8 1084.71C1132.32 1132.88 1132.68 1191.95 1111.44 1224.23" stroke="#04C5C8" stroke-miterlimit="10"/>
<path d="M164.879 -22.293C209.639 -35.7461 259.319 -26.5211 296.999 1.28199C319.679 17.9382 337.679 41.1289 349.559 67.2664C357.359 84.6914 362.519 103.398 364.319 122.36C368.639 167.973 355.319 214.738 364.679 262.785C366.959 274.573 370.559 285.719 375.119 296.226C390.839 332.101 418.559 360.16 447.119 376.304C483.959 397.188 522.479 402.185 563.279 407.182C572.159 408.335 581.279 409.36 590.639 410.641C624.239 415.254 660.239 420.763 695.519 435.754C735.239 452.538 773.519 484.826 789.479 524.544C791.639 529.798 793.319 535.307 794.639 540.816C804.239 581.688 791.159 619.357 777.479 655.232C766.919 683.163 755.399 711.991 741.719 741.973C734.159 758.501 725.879 775.029 717.599 791.685C700.559 825.766 682.079 867.023 698.039 903.41C714.239 940.438 756.359 952.482 793.679 957.991C798.839 958.76 804.119 959.529 809.279 960.17C851.519 965.679 892.919 969.138 932.279 980.285C942.119 983.104 951.959 986.307 961.559 990.151C1014.24 1011.04 1061.64 1050.11 1085.76 1100.34C1109.76 1150.56 1105.92 1211.29 1079.76 1242.81" stroke="#04CFD2" stroke-miterlimit="10"/>
<path d="M158.879 -19.6028C204.119 -32.7997 254.279 -22.6779 291.719 6.40652C314.279 23.8315 331.919 47.919 343.079 74.9534C350.519 92.8909 355.079 112.11 356.279 131.457C359.039 178.222 343.559 225.5 352.679 273.932C354.959 285.847 358.559 296.994 363.359 307.628C379.799 343.632 409.319 371.178 439.799 386.041C479.159 405.388 520.199 407.822 562.919 410.385C572.159 411.025 581.759 411.538 591.359 412.307C626.159 415.125 662.999 419.353 698.879 433.832C739.199 450.103 777.719 483.288 792.479 524.416C794.519 529.925 796.079 535.563 797.159 541.329C805.319 583.482 789.359 622.303 773.279 658.691C760.799 687.007 747.479 715.963 732.479 745.816C724.199 762.344 715.319 778.872 706.439 795.4C688.199 829.482 668.639 870.994 684.479 907.638C700.439 944.41 742.319 956.069 779.279 962.091C784.439 962.86 789.599 963.757 794.759 964.525C836.639 970.675 877.799 975.8 916.799 988.485C926.519 991.688 936.239 995.403 945.719 999.632C997.559 1022.69 1043.64 1063.95 1065.12 1116.35C1086.48 1168.63 1078.56 1231.15 1047.48 1261.78" stroke="#04D8DB" stroke-miterlimit="10"/>
<path d="M152.76 -16.9122C198.48 -29.8528 249.12 -18.8341 286.32 11.6596C308.76 29.8534 326.04 54.8377 336.6 82.6409C343.68 101.091 347.64 120.95 348.12 140.682C349.32 188.472 331.56 236.263 340.56 285.207C342.72 297.122 346.56 308.525 351.48 319.032C368.52 355.163 399.96 382.197 432.36 395.907C474.24 413.588 517.92 413.46 562.56 413.716C572.28 413.716 582.12 413.844 592.2 414.1C628.32 415.125 665.88 418.072 702.24 432.166C743.16 448.053 781.8 482.007 795.6 524.416C797.4 530.053 798.84 535.819 799.8 541.841C806.52 585.403 787.8 625.122 769.2 662.022C754.8 690.722 739.8 719.807 723.48 749.66C714.48 766.06 705 782.716 695.52 799.244C676.2 833.197 655.56 874.966 671.28 912.122C687 948.638 728.76 960.041 765.24 966.319C770.4 967.216 775.44 968.113 780.6 968.882C822.12 975.672 863.04 982.463 901.56 996.685C911.28 1000.27 920.76 1004.37 930 1008.98C981 1034.23 1025.76 1077.79 1044.6 1132.11C1063.44 1186.44 1051.44 1250.76 1015.44 1280.48" stroke="#6CB9AD" stroke-miterlimit="10"/>
<path d="M146.639 -14.3499C192.839 -27.0343 243.959 -14.9906 281.039 16.6563C303.359 35.7469 320.279 61.6282 330.239 90.2001C336.839 109.291 340.319 129.534 340.199 149.778C339.839 198.594 319.919 247.025 328.679 296.353C330.839 308.397 334.679 319.8 339.959 330.434C357.719 366.566 390.959 393.216 425.159 405.644C469.439 421.788 515.879 419.097 562.319 416.791C572.399 416.278 582.719 415.894 593.039 415.638C630.359 414.869 668.879 416.534 705.719 430.244C747.239 445.619 786.119 480.469 798.839 524.159C800.519 529.925 801.719 535.947 802.439 542.097C807.719 587.069 786.119 627.684 764.999 665.097C748.679 694.053 731.879 723.394 714.359 753.247C704.639 769.647 694.559 786.175 684.599 802.703C664.079 836.528 642.359 878.681 658.079 916.094C673.559 952.481 715.079 963.372 751.199 970.034C756.239 970.931 761.279 971.828 766.319 972.853C807.479 980.413 848.159 988.613 886.199 1004.5C895.799 1008.47 905.159 1012.96 914.279 1017.95C964.439 1045.37 1007.76 1091.24 1024.08 1147.62C1040.28 1203.99 1024.2 1270.1 983.279 1298.93" stroke="#05ECED" stroke-miterlimit="10"/>
<path d="M140.52 -11.6593C187.2 -24.0874 238.68 -11.1468 275.64 21.9095C297.84 41.7689 314.4 68.547 323.76 98.0157C330 117.619 332.88 138.375 332.16 159.003C330.24 208.844 308.04 257.788 316.8 307.628C318.96 319.8 322.92 331.331 328.32 341.838C346.68 378.097 381.72 404.106 417.96 415.381C464.76 429.859 513.72 424.606 562.08 419.994C572.64 418.969 583.2 418.072 594 417.303C632.52 414.741 671.88 415.125 709.2 428.45C751.32 443.313 790.44 478.931 802.08 524.031C803.64 530.053 804.72 536.203 805.2 542.481C809.04 588.734 784.56 630.503 761.04 668.3C742.8 697.641 724.32 727.11 705.36 756.963C694.92 773.363 684.36 789.891 673.68 806.419C651.96 840.116 629.16 882.525 644.88 920.45C660 956.581 701.4 967.216 737.16 974.134C742.2 975.159 747.24 976.056 752.16 977.081C792.96 985.281 833.4 995.147 870.96 1012.57C880.44 1016.93 889.68 1021.8 898.68 1027.18C948 1056.78 990 1104.82 1003.68 1163.38C1017.36 1221.93 997.08 1289.71 951.24 1317.64" stroke="#05F5F6" stroke-miterlimit="10"/>
<path d="M134.52 -8.96853C181.56 -21.1404 233.64 -7.3029 270.48 27.0346C307.32 61.3721 327.84 115.441 324.24 168.1C320.76 218.966 296.28 268.55 304.92 318.775C314.28 373.228 361.44 412.178 410.76 425.119C460.08 438.06 511.68 430.244 561.96 423.197C612.24 416.15 664.32 410.256 712.8 426.528C761.28 442.8 805.32 487.516 808.08 542.738C810.48 590.4 783.12 633.066 757.08 671.375C725.76 717.5 694.32 763.753 663 809.878C640.08 843.575 616.2 886.241 631.92 924.422C646.68 960.297 687.96 970.547 723.36 977.85C778.92 989.253 834.84 1004.5 883.2 1036.15C931.68 1067.92 972.36 1118.28 983.4 1178.88C994.44 1239.48 970.08 1309.05 919.32 1336.09" stroke="#05FFFF" stroke-miterlimit="10"/>
<path d="M162.119 -12.6839C206.999 -19.2182 253.679 -1.0245 284.759 33.8255C315.839 68.8036 330.479 119.925 323.639 172.329C317.159 222.169 292.079 272.266 299.519 323.26C307.679 378.354 353.639 419.482 403.079 433.447C451.199 447.029 501.959 439.341 551.399 433.576C602.759 427.554 655.919 423.454 705.479 440.11C753.599 456.382 797.639 499.56 801.239 554.269C804.359 601.419 777.839 644.213 752.039 682.394C721.199 728.007 690.119 773.491 659.279 819.104C636.599 852.801 613.199 895.594 628.919 933.775C643.799 969.779 684.959 980.541 720.479 987.972C775.199 999.247 830.279 1013.98 878.159 1045.24C926.039 1076.51 966.119 1126.48 976.919 1186.31C987.719 1246.14 963.959 1314.82 914.279 1342.24" stroke="#05F8F8" stroke-miterlimit="10"/>
<path d="M189.6 -16.5278C232.2 -17.4247 273.48 4.99717 298.8 40.4878C324.12 75.9784 332.88 124.282 322.8 176.3C313.32 225.116 287.64 275.597 294 327.488C301.08 383.222 345.72 426.528 395.4 441.519C442.44 455.741 492.24 448.31 540.84 443.697C593.28 438.7 647.4 436.394 698.16 453.435C745.92 469.45 790.08 511.475 794.4 565.544C798.12 612.182 772.44 655.103 747 693.157C716.76 738.257 685.8 782.972 655.56 828.072C633 861.897 610.2 904.819 625.8 943C640.68 979.26 681.72 990.535 717.36 998.094C771.24 1009.37 825.6 1023.59 872.76 1054.34C920.16 1085.22 959.4 1134.68 970.08 1193.87C980.76 1253.06 957.48 1320.58 908.88 1348.39" stroke="#05F1F2" stroke-miterlimit="10"/>
<path d="M217.199 -20.3724C257.519 -15.7599 293.519 11.0183 313.079 47.0214C332.759 83.0245 335.639 128.381 322.199 180.271C309.839 228.062 283.199 279.056 288.599 331.715C294.359 388.218 337.799 433.575 387.719 449.718C433.559 464.581 482.639 457.534 530.279 454.074C583.799 450.231 638.879 449.59 690.839 466.887C738.239 482.774 782.519 523.39 787.559 576.818C791.999 622.943 767.039 665.993 741.959 703.918C712.319 748.634 681.599 792.453 651.839 837.04C629.399 870.865 607.199 913.915 622.799 952.096C637.679 988.484 678.719 1000.27 714.479 1008.09C767.519 1019.36 821.159 1033.07 867.599 1063.18C914.399 1093.55 953.039 1142.62 963.479 1201.04C973.919 1259.47 951.239 1326.09 903.719 1354.15" stroke="#05E9EB" stroke-miterlimit="10"/>
<path d="M244.801 -24.0869C282.841 -13.8369 313.441 17.1694 327.361 53.8131C341.281 90.3287 338.401 132.738 321.601 184.372C306.481 231.01 279.001 282.516 283.321 336.201C287.881 393.344 330.121 440.751 380.281 458.048C425.041 473.422 473.161 466.888 520.081 464.454C574.681 461.635 630.721 462.788 683.881 480.469C730.921 496.229 775.201 535.563 781.081 588.351C786.241 633.963 762.121 677.141 737.401 714.938C708.361 759.141 677.761 802.191 648.601 846.266C626.281 880.219 604.681 923.269 620.281 961.451C635.281 997.966 676.081 1010.39 711.961 1018.21C764.161 1029.61 817.081 1042.68 862.801 1072.28C909.001 1102.26 947.041 1150.95 957.241 1208.48C967.441 1266 945.361 1331.73 898.921 1360.18" stroke="#6CB9AD" stroke-miterlimit="10"/>
<path d="M272.4 -27.9307C308.28 -12.0432 333.36 23.0631 341.64 60.4756C349.8 97.3756 341.28 136.966 321 188.472C303.12 234.085 274.68 286.104 277.92 340.557C281.4 398.341 322.32 447.797 372.6 466.247C416.28 482.135 463.56 473.038 509.52 474.704C565.2 476.754 622.32 475.857 676.56 493.922C723.24 509.554 767.64 547.607 774.24 599.626C780 644.726 756.72 688.032 732.36 725.701C703.92 769.391 673.44 811.544 644.88 855.235C622.68 889.188 601.68 932.494 617.28 970.676C632.28 1007.45 673.08 1020.39 709.08 1028.33C760.44 1039.73 812.64 1052.29 857.64 1081.38C903.24 1110.84 940.56 1159.15 950.76 1216.03C960.84 1272.92 939.24 1337.5 893.88 1366.33" stroke="#04DBDE" stroke-miterlimit="10"/>
<path d="M299.998 -31.6473C333.598 -10.1223 353.398 29.0839 355.798 67.137C358.198 104.421 344.038 141.193 320.398 192.443C299.878 236.903 270.358 289.434 272.518 344.784C274.798 403.209 314.518 454.715 365.038 474.318C407.518 490.718 454.078 481.878 499.078 484.953C555.718 488.796 613.918 488.925 669.358 507.375C715.678 522.75 760.198 559.521 767.518 611.028C773.998 655.743 751.438 699.05 727.438 736.718C699.598 779.897 669.238 821.281 641.398 864.459C619.318 898.54 598.918 941.847 614.398 980.028C629.398 1016.93 670.078 1030.38 706.318 1038.58C756.838 1049.98 808.318 1061.9 852.718 1090.6C897.838 1119.68 934.438 1167.47 944.398 1223.59C954.358 1279.71 933.238 1343.39 889.078 1372.47" stroke="#04D4D7" stroke-miterlimit="10"/>
<path d="M327.48 -35.4912C358.8 -8.4568 373.32 34.9776 369.96 73.7994C366.72 111.468 346.92 145.421 319.68 196.543C296.52 239.978 266.04 293.021 267.12 349.268C268.2 408.334 306.6 461.89 357.48 482.646C398.88 499.559 444.72 491.103 488.64 495.331C546.36 500.84 605.52 502.249 662.16 520.828C708.12 536.074 752.64 571.565 760.8 622.431C768 666.634 746.28 710.196 722.52 747.609C695.28 790.274 665.16 830.89 637.8 873.556C615.84 907.637 596.04 951.071 611.52 989.253C626.52 1026.28 667.2 1040.37 703.44 1048.57C753.12 1059.98 803.76 1071.38 847.56 1099.57C892.08 1128.14 928.08 1175.55 937.8 1231.02C947.52 1286.5 927 1349.03 883.92 1378.5" stroke="#04CDD0" stroke-miterlimit="10"/>
<path d="M355.079 -39.2057C384.119 -6.53378 393.359 41.0006 384.239 80.5912C375.479 118.644 350.039 149.779 319.079 200.773C293.399 243.182 261.839 296.61 261.719 353.754C261.719 413.46 298.799 469.066 349.799 491.104C390.119 508.529 435.119 500.713 478.079 505.838C536.759 512.885 597.119 515.576 654.839 534.538C700.439 549.657 745.079 583.738 753.959 633.963C761.759 677.654 740.999 721.344 717.479 758.629C690.839 800.91 660.839 840.629 634.079 882.782C612.359 916.991 593.039 960.554 608.519 998.607C623.639 1035.89 664.079 1050.37 700.559 1058.83C749.399 1070.23 799.319 1081.12 842.399 1108.67C886.319 1136.85 921.719 1183.75 931.199 1238.46C940.679 1293.17 920.759 1354.79 878.759 1384.65" stroke="#04C5CA" stroke-miterlimit="10"/>
<path d="M382.679 -43.0495C409.439 -4.74013 413.519 46.7661 398.519 87.2536C384.239 125.691 353.159 154.007 318.479 204.744C290.279 246.001 257.519 300.069 256.439 357.982C255.239 418.329 291.119 475.857 342.359 499.176C381.479 516.985 425.519 513.782 467.879 515.96C528.119 519.163 588.959 528.516 647.879 547.863C693.119 562.854 737.879 595.654 747.479 645.238C755.999 688.416 735.959 732.235 712.799 769.391C686.759 811.16 656.999 850.11 630.719 891.751C609.119 925.96 590.399 969.651 605.759 1007.83C620.879 1045.24 661.319 1060.23 697.799 1068.95C745.799 1080.35 794.999 1090.73 837.359 1117.76C880.799 1145.44 915.359 1191.95 924.719 1246.02C934.079 1299.96 914.639 1360.56 873.719 1390.8" stroke="#04BEC3" stroke-miterlimit="10"/>
<path d="M410.28 -46.765C434.88 -2.94629 433.8 52.9162 412.8 93.9162C393 132.738 356.28 158.363 317.88 208.844C287.16 249.204 253.32 303.529 251.04 362.338C248.76 423.326 283.32 482.904 334.68 507.376C372.72 525.569 415.92 523.263 457.32 526.338C518.64 530.951 580.44 541.713 640.56 561.316C685.44 576.179 730.2 607.569 740.64 656.513C749.88 699.179 730.56 743.126 707.76 780.154C682.32 821.41 652.68 859.591 627 900.719C605.52 935.057 587.4 978.747 602.76 1016.93C617.88 1054.47 658.2 1070.1 694.92 1078.81C742.08 1090.09 790.56 1099.95 832.2 1126.6C875.04 1153.89 909 1199.89 918.12 1253.19C927.24 1306.49 908.4 1366.07 868.56 1396.56" stroke="#04B7BC" stroke-miterlimit="10"/>
<path d="M437.88 -50.6089C460.2 -1.15264 453.96 58.8099 426.96 100.579C401.64 139.785 359.4 162.719 317.16 212.816C284.04 252.15 248.88 306.988 245.52 366.694C242.04 428.45 275.4 489.694 327 515.575C363.96 534.154 406.32 532.744 446.76 536.588C509.28 542.482 572.04 554.782 633.24 574.769C677.76 589.375 722.64 619.613 733.8 667.916C743.64 710.069 725.28 754.144 702.72 791.044C677.88 831.788 648.48 869.328 623.4 909.816C602.04 944.282 584.52 988.1 599.88 1026.15C615 1063.82 655.32 1079.97 692.04 1088.93C738.36 1100.21 786.12 1109.56 827.16 1135.7C869.4 1162.48 902.76 1208.09 911.64 1260.62C920.52 1313.15 902.28 1371.71 863.52 1402.58" stroke="#03B0B6" stroke-miterlimit="10"/>
<path d="M465.36 -54.3256C485.4 0.768183 474 64.9588 441.12 107.368C410.28 147.087 362.52 167.331 316.44 217.043C280.8 255.481 244.56 310.574 240.12 371.177C235.56 433.574 267.6 496.74 319.32 524.031C355.2 542.993 396.6 542.481 436.2 547.093C499.8 554.524 563.52 568.106 625.92 588.478C670.08 602.956 715.08 631.784 726.96 679.446C737.52 721.087 719.88 765.29 697.68 802.062C673.32 842.293 644.28 879.065 619.68 919.04C598.56 953.506 581.52 997.452 596.88 1035.51C612.12 1073.43 652.32 1089.96 689.16 1099.18C734.64 1110.46 781.68 1119.3 822 1144.8C863.76 1171.19 896.4 1216.29 905.04 1268.18C913.8 1319.94 896.04 1377.47 858.36 1408.73" stroke="#03A9AF" stroke-miterlimit="10"/>
<path d="M492.959 -58.1694C510.719 2.43375 494.279 70.9806 455.399 114.031C419.039 154.262 365.759 171.815 315.839 221.015C277.799 258.556 240.359 314.034 234.719 375.406C228.959 438.443 259.799 503.531 311.759 532.103C346.679 551.321 387.119 551.962 425.879 557.343C490.559 566.184 555.239 581.174 618.839 601.802C662.639 616.152 707.639 643.699 720.359 690.721C731.639 731.849 714.719 776.309 692.879 812.824C669.119 852.543 640.199 888.546 616.199 928.009C595.199 962.602 578.759 1006.55 593.999 1044.73C609.239 1082.78 649.319 1099.95 686.399 1109.18C731.039 1120.45 777.239 1128.78 816.959 1153.77C858.119 1179.77 890.039 1224.36 898.679 1275.48C907.199 1326.61 890.039 1383.11 853.439 1414.63" stroke="#03A2A8" stroke-miterlimit="10"/>
<path d="M520.559 -62.0132C536.159 4.22741 514.439 77.0024 469.679 120.565C427.799 161.309 368.999 176.171 315.239 224.987C274.799 261.631 236.039 317.365 229.439 379.762C222.599 443.44 252.239 510.321 304.199 540.302C338.039 559.906 377.639 561.571 415.439 567.593C481.319 578.099 546.839 594.243 611.639 615.256C655.199 629.477 700.199 655.615 713.639 702.124C725.519 742.74 709.559 787.327 687.959 823.715C664.799 862.921 636.119 898.156 612.599 937.106C591.719 971.827 575.879 1015.9 591.119 1053.96C606.359 1092.14 646.439 1109.82 683.519 1119.3C727.319 1130.45 772.799 1138.26 811.799 1162.86C852.359 1188.36 883.679 1232.69 892.079 1283.04C900.479 1333.4 883.799 1388.87 848.279 1420.78" stroke="#039AA2" stroke-miterlimit="10"/>
<path d="M548.159 -65.7277C561.479 6.15043 534.599 83.1535 483.959 127.357C436.559 168.613 372.239 180.913 314.639 229.088C271.799 264.963 231.839 320.954 224.039 384.119C216.119 448.438 244.559 516.985 296.639 548.504C329.399 568.363 368.039 571.182 404.999 577.844C471.959 589.888 538.559 607.313 604.439 628.71C647.639 642.675 692.759 667.66 706.919 713.4C719.519 753.504 704.279 798.219 683.039 834.607C660.479 873.3 631.919 907.766 608.999 946.204C588.239 980.925 572.999 1025.13 588.239 1063.18C603.479 1101.62 643.439 1119.68 680.759 1129.42C723.719 1140.57 768.479 1147.87 806.759 1171.96C846.839 1197.07 877.439 1240.89 885.599 1290.48C893.759 1340.06 877.679 1394.64 843.239 1426.93" stroke="#03939B" stroke-miterlimit="10"/>
<path d="M575.76 -69.5715C586.8 7.94409 554.76 89.1753 498.12 134.019C445.2 175.916 375.36 185.525 313.92 233.188C268.68 268.294 227.52 324.541 218.64 388.475C209.52 453.435 236.88 523.775 288.96 556.832C320.76 576.947 358.44 581.047 394.44 588.222C462.48 601.932 530.04 620.638 597.24 642.163C640.08 656 685.2 679.703 700.2 724.803C713.52 764.394 699 809.238 678.12 845.497C656.16 883.678 627.84 917.375 605.52 955.3C585 990.15 570.24 1034.35 585.36 1072.41C600.72 1110.97 640.56 1129.55 677.88 1139.54C720 1150.69 764.04 1157.48 801.6 1180.93C841.08 1205.53 871.08 1248.96 879 1297.78C886.92 1346.72 871.44 1400.15 838.08 1432.82" stroke="#038C94" stroke-miterlimit="10"/>
<path d="M603.36 -73.2871C612.12 9.73793 574.92 95.4536 512.4 140.682C453.96 183.091 378.72 190.138 313.32 237.16C265.68 271.497 223.32 327.872 213.24 392.704C203.04 458.304 229.2 530.31 281.4 564.904C312.12 585.275 348.84 590.529 384 598.472C453.12 613.975 521.64 633.707 590.04 655.616C632.52 669.325 677.76 691.619 693.48 736.079C707.4 775.157 693.72 820.129 673.2 856.26C651.72 893.929 623.76 926.857 601.92 964.269C581.52 999.247 567.36 1043.58 582.48 1081.63C597.84 1120.33 637.56 1139.54 675.12 1149.54C716.4 1160.56 759.72 1166.96 796.68 1189.9C835.56 1214.11 864.84 1257.03 872.64 1305.21C880.44 1353.38 865.44 1405.92 833.16 1438.84" stroke="#03858E" stroke-miterlimit="10"/>
<path d="M630.84 -77.1309C637.32 11.5316 594.96 101.475 526.56 147.344C462.6 190.266 381.84 194.878 312.6 241.26C262.56 274.828 219 331.46 207.72 397.188C196.56 463.557 221.4 537.1 273.6 573.232C303.36 593.86 339.12 600.394 373.44 608.85C443.52 626.147 513.24 646.903 582.72 669.197C624.84 682.778 670.2 703.791 686.64 747.61C701.28 786.303 688.32 831.275 668.16 867.278C647.28 904.435 619.56 936.722 598.2 973.494C578.04 1008.6 564.48 1052.93 579.48 1090.98C594.84 1129.93 634.56 1149.54 672.12 1159.79C712.56 1170.81 755.16 1176.7 791.4 1199.12C829.8 1222.83 858.36 1265.36 865.92 1312.77C873.48 1360.18 859.08 1411.68 828 1444.99" stroke="#027E87" stroke-miterlimit="10"/>
<path d="M658.44 -80.8465C662.76 13.4535 615.24 107.754 540.84 154.135C471.36 197.697 385.08 199.747 312 245.36C259.56 278.16 214.8 334.919 202.44 401.544C190.08 468.554 213.96 543.763 266.16 581.432C294.96 602.188 329.64 610.132 363.12 619.1C434.28 638.319 504.96 659.972 575.64 682.522C617.4 695.975 662.76 715.579 680.04 758.885C695.28 797.066 683.28 842.166 663.36 878.041C643.08 914.685 615.6 946.204 594.72 982.463C574.68 1017.57 561.72 1062.03 576.72 1100.08C592.08 1139.16 631.8 1159.15 669.48 1169.78C709.08 1180.67 750.84 1186.05 786.48 1208.09C824.28 1231.41 852.24 1273.43 859.56 1320.2C867 1366.97 853.08 1417.45 823.08 1451.02" stroke="#027680" stroke-miterlimit="10"/>
<path d="M686.041 -84.6903C688.081 15.119 635.281 113.775 555.001 160.797C480.001 204.872 388.201 204.488 311.281 249.46C256.321 281.619 210.481 338.507 196.921 405.9C183.481 473.55 206.281 550.297 258.361 589.632C286.201 610.644 319.801 619.869 352.441 629.478C424.561 650.747 496.321 673.169 568.201 696.103C609.601 709.3 655.081 727.75 673.081 770.288C689.041 807.957 677.761 853.185 658.321 888.932C638.521 925.063 611.281 955.813 591.001 991.56C571.201 1026.79 558.721 1071.38 573.601 1109.31C589.081 1148.51 628.561 1169.14 666.481 1179.78C705.241 1190.67 746.281 1195.53 781.201 1216.93C818.401 1239.74 845.641 1281.38 852.841 1327.38C860.041 1373.37 846.721 1422.83 817.801 1456.78" stroke="#026F7A" stroke-miterlimit="10"/>
<path d="M713.64 -88.4058C713.4 17.0411 655.44 119.925 569.28 167.46C488.64 212.047 391.44 209.229 310.68 253.432C253.32 284.95 206.16 341.838 191.64 410.257C177 478.547 198.84 556.832 250.92 597.96C277.8 619.229 310.32 629.735 342.12 639.857C415.08 663.175 488.04 686.366 561.12 709.685C602.16 722.754 647.76 739.794 666.48 781.819C683.16 818.975 672.6 864.332 653.52 899.95C634.32 935.569 607.32 965.55 587.64 1000.91C567.96 1036.28 556.08 1080.86 570.96 1118.92C586.44 1158.25 625.92 1179.39 663.84 1190.28C701.76 1201.17 742.08 1205.53 776.28 1226.41C813 1248.83 839.52 1289.96 846.6 1335.32C853.56 1380.55 840.84 1428.98 813 1463.32" stroke="#026873" stroke-miterlimit="10"/>
</g>
</g>
</g>
<defs>
<clipPath id="clip0_752_5138">
<rect width="1440" height="1024" fill="white"/>
</clipPath>
</defs>
</svg>
