<svg width="49" height="49" viewBox="0 0 49 49" fill="none" xmlns="http://www.w3.org/2000/svg">
<path d="M15.3332 47.4167H33.6664C42.8789 47.4167 44.5289 43.7271 45.0102 39.2354L46.7289 20.9021C47.3477 15.3104 45.7435 10.75 35.9581 10.75H13.0416C3.25614 10.75 1.65197 15.3104 2.27072 20.9021L3.98947 39.2354C4.47072 43.7271 6.12072 47.4167 15.3332 47.4167Z" stroke="#006569" stroke-width="3" stroke-miterlimit="10" stroke-linecap="round" stroke-linejoin="round"/>
<path d="M15.334 10.75V8.91668C15.334 4.86043 15.334 1.58334 22.6673 1.58334H26.334C33.6673 1.58334 33.6673 4.86043 33.6673 8.91668V10.75" stroke="#006569" stroke-width="3" stroke-miterlimit="10" stroke-linecap="round" stroke-linejoin="round"/>
<path d="M29.0827 26.7917V29.0833C29.0827 29.1063 29.0827 29.1063 29.0827 29.1292C29.0827 31.6271 29.0598 33.6667 24.4993 33.6667C19.9618 33.6667 19.916 31.65 19.916 29.1521V26.7917C19.916 24.5 19.916 24.5 22.2077 24.5H26.791C29.0827 24.5 29.0827 24.5 29.0827 26.7917Z" stroke="#006569" stroke-width="3" stroke-miterlimit="10" stroke-linecap="round" stroke-linejoin="round"/>
<path d="M46.6152 22.2084C41.3215 26.0584 35.2715 28.35 29.084 29.1292" stroke="#006569" stroke-width="3" stroke-miterlimit="10" stroke-linecap="round" stroke-linejoin="round"/>
<path d="M3.00391 22.8259C8.16016 26.3551 13.981 28.4863 19.9164 29.1509" stroke="#006569" stroke-width="3" stroke-miterlimit="10" stroke-linecap="round" stroke-linejoin="round"/>
</svg>
