<svg width="48" height="49" viewBox="0 0 48 49" fill="none" xmlns="http://www.w3.org/2000/svg">
<path d="M19.5309 2.79632L5.73516 11.8026C1.31224 14.6901 1.31224 21.1526 5.73516 24.0401L19.5309 33.0463C22.0059 34.6734 26.0851 34.6734 28.5601 33.0463L42.2872 24.0401C46.6872 21.1526 46.6872 14.713 42.2872 11.8255L28.5601 2.81924C26.0851 1.16924 22.0059 1.16924 19.5309 2.79632Z" stroke="#006569" stroke-width="3" stroke-linecap="round" stroke-linejoin="round"/>
<path d="M9.40182 26.9752L9.37891 37.7231C9.37891 40.6336 11.6247 43.7502 14.3747 44.6669L21.6852 47.0961C22.9456 47.5086 25.031 47.5086 26.3143 47.0961L33.6247 44.6669C36.3747 43.7502 38.6206 40.6336 38.6206 37.7231V27.0898" stroke="#006569" stroke-width="3" stroke-linecap="round" stroke-linejoin="round"/>
<path d="M45.541 31.375V17.625" stroke="#006569" stroke-width="3" stroke-linecap="round" stroke-linejoin="round"/>
</svg>
