<svg width="50" height="51" viewBox="0 0 50 51" fill="none" xmlns="http://www.w3.org/2000/svg">
<path d="M47.9173 50.1354H8.95898C4.21523 50.1354 0.365234 46.2854 0.365234 41.5417V2.58334C0.365234 1.64376 1.1444 0.864594 2.08398 0.864594C3.02357 0.864594 3.80273 1.64376 3.80273 2.58334V41.5417C3.80273 44.3833 6.11732 46.6979 8.95898 46.6979H47.9173C48.8569 46.6979 49.6361 47.4771 49.6361 48.4167C49.6361 49.3563 48.8569 50.1354 47.9173 50.1354Z" fill="#006569"/>
<path d="M8.95858 38.6766C8.56899 38.6766 8.15649 38.5392 7.83566 38.2641C7.12524 37.6454 7.03358 36.5683 7.65233 35.835L18.1711 23.5517C19.3169 22.2225 20.967 21.4204 22.7086 21.3517C24.4503 21.3058 26.1691 21.9475 27.4066 23.185L29.5836 25.3621C30.1566 25.935 30.8899 26.21 31.7149 26.21C32.517 26.1871 33.2503 25.8204 33.7774 25.2016L44.2961 12.9184C44.9149 12.2079 45.992 12.1163 46.7253 12.735C47.4357 13.3538 47.5274 14.4309 46.9086 15.1642L36.3899 27.4475C35.2441 28.7767 33.5941 29.5787 31.8524 29.6475C30.0878 29.6933 28.392 29.0517 27.1545 27.8141L25.0003 25.6371C24.4274 25.0642 23.6711 24.7662 22.8691 24.7892C22.067 24.8121 21.3336 25.1787 20.8066 25.7975L10.2877 38.0808C9.92108 38.4704 9.43983 38.6766 8.95858 38.6766Z" fill="#006569"/>
</svg>
