<svg width="49" height="49" viewBox="0 0 49 49" fill="none" xmlns="http://www.w3.org/2000/svg">
<path d="M38.2516 13.4083C38.1141 13.3854 37.9536 13.3854 37.8161 13.4083C34.6536 13.2938 32.1328 10.7042 32.1328 7.49584C32.1328 4.21876 34.7682 1.58334 38.0453 1.58334C41.3224 1.58334 43.9578 4.24168 43.9578 7.49584C43.9349 10.7042 41.4141 13.2938 38.2516 13.4083Z" stroke="#006569" stroke-width="3" stroke-linecap="round" stroke-linejoin="round"/>
<path d="M35.891 30.0922C39.0306 30.6192 42.491 30.0692 44.9202 28.4422C48.1514 26.288 48.1514 22.7588 44.9202 20.6047C42.4681 18.9775 38.9618 18.4275 35.8223 18.9775" stroke="#006569" stroke-width="3" stroke-linecap="round" stroke-linejoin="round"/>
<path d="M10.6828 13.4083C10.8203 13.3854 10.9807 13.3854 11.1182 13.4083C14.2807 13.2938 16.8016 10.7042 16.8016 7.49584C16.8016 4.21876 14.1661 1.58334 10.8891 1.58334C7.61198 1.58334 4.97656 4.24168 4.97656 7.49584C4.99948 10.7042 7.52031 13.2938 10.6828 13.4083Z" stroke="#006569" stroke-width="3" stroke-linecap="round" stroke-linejoin="round"/>
<path d="M13.0424 30.0922C9.90286 30.6192 6.44245 30.0692 4.01328 28.4422C0.782031 26.288 0.782031 22.7588 4.01328 20.6047C6.46536 18.9775 9.97162 18.4275 13.1112 18.9775" stroke="#006569" stroke-width="3" stroke-linecap="round" stroke-linejoin="round"/>
<path d="M24.5016 30.5264C24.3641 30.5035 24.2037 30.5035 24.0662 30.5264C20.9037 30.4118 18.3828 27.8222 18.3828 24.6139C18.3828 21.3368 21.0183 18.7015 24.2954 18.7015C27.5724 18.7015 30.2079 21.3597 30.2079 24.6139C30.1849 27.8222 27.6641 30.4347 24.5016 30.5264Z" stroke="#006569" stroke-width="3" stroke-linecap="round" stroke-linejoin="round"/>
<path d="M17.8336 37.7445C14.6023 39.8986 14.6023 43.4278 17.8336 45.582C21.5002 48.0341 27.5044 48.0341 31.1711 45.582C34.4023 43.4278 34.4023 39.8986 31.1711 37.7445C27.5273 35.3153 21.5002 35.3153 17.8336 37.7445Z" stroke="#006569" stroke-width="3" stroke-linecap="round" stroke-linejoin="round"/>
</svg>
