<svg width="50" height="50" viewBox="0 0 50 50" fill="none" xmlns="http://www.w3.org/2000/svg">
<path d="M47.5521 49.2708H8.59375C3.85 49.2708 0 45.4208 0 40.6771V1.71875C0 0.779167 0.779167 0 1.71875 0C2.65833 0 3.4375 0.779167 3.4375 1.71875V40.6771C3.4375 43.5187 5.75208 45.8333 8.59375 45.8333H47.5521C48.4917 45.8333 49.2708 46.6125 49.2708 47.5521C49.2708 48.4917 48.4917 49.2708 47.5521 49.2708Z" fill="#9DC88D"/>
<path d="M8.59334 37.812C8.20376 37.812 7.79126 37.6745 7.47043 37.3995C6.76001 36.7807 6.66834 35.7036 7.28709 34.9703L17.8058 22.687C18.9517 21.3578 20.6017 20.5557 22.3434 20.487C24.0851 20.4411 25.8038 21.0828 27.0413 22.3203L29.2184 24.4974C29.7913 25.0703 30.5247 25.3453 31.3497 25.3453C32.1517 25.3224 32.8851 24.9557 33.4122 24.337L43.9309 12.0537C44.5497 11.3433 45.6267 11.2516 46.3601 11.8703C47.0705 12.4891 47.1622 13.5662 46.5434 14.2995L36.0247 26.5828C34.8788 27.912 33.2288 28.714 31.4872 28.7828C29.7226 28.8286 28.0267 28.187 26.7892 26.9495L24.6351 24.7724C24.0622 24.1995 23.3059 23.9015 22.5038 23.9245C21.7017 23.9474 20.9684 24.314 20.4413 24.9328L9.92251 37.2161C9.55584 37.6057 9.07459 37.812 8.59334 37.812Z" fill="#9DC88D"/>
</svg>
