<svg width="40" height="45" viewBox="0 0 40 45" fill="none" xmlns="http://www.w3.org/2000/svg">
<path d="M33.5833 6.08333V3.79167C33.5833 3.18388 33.3419 2.60098 32.9121 2.17121C32.4824 1.74144 31.8995 1.5 31.2917 1.5H12.7612C12.1535 1.50013 11.5707 1.74166 11.141 2.17146L2.17146 11.141C1.74166 11.5707 1.50013 12.1535 1.5 12.7613V40.4583C1.5 41.0661 1.74144 41.649 2.17121 42.0788C2.60098 42.5086 3.18388 42.75 3.79167 42.75H31.2917C31.8995 42.75 32.4824 42.5086 32.9121 42.0788C33.3419 41.649 33.5833 41.0661 33.5833 40.4583V29M12.9583 1.5V10.6667C12.9583 11.2745 12.7169 11.8573 12.2871 12.2871C11.8573 12.7169 11.2745 12.9583 10.6667 12.9583H1.5M27.586 14.7275L33.8767 21.0204M36.661 12.0692C37.5579 12.9668 38.0617 14.1839 38.0617 15.4528C38.0617 16.7218 37.5579 17.9388 36.661 18.8365L21.4215 34.0669L12.9583 35.7604L14.6519 27.2996L29.8823 12.0692C30.3267 11.6228 30.8549 11.2686 31.4365 11.0269C32.0182 10.7853 32.6418 10.6608 33.2717 10.6608C33.9015 10.6608 34.5252 10.7853 35.1068 11.0269C35.6885 11.2686 36.2167 11.6228 36.661 12.0692Z" stroke="#9DC88D" stroke-width="3" stroke-linecap="round" stroke-linejoin="round"/>
</svg>
