<svg width="49" height="49" viewBox="0 0 49 49" fill="none" xmlns="http://www.w3.org/2000/svg">
<path d="M38.1617 13.325C38.0242 13.3021 37.8638 13.3021 37.7263 13.325C34.5638 13.2104 32.043 10.6208 32.043 7.4125C32.043 4.13542 34.6784 1.5 37.9555 1.5C41.2326 1.5 43.868 4.15833 43.868 7.4125C43.8451 10.6208 41.3242 13.2104 38.1617 13.325Z" stroke="#9DC88D" stroke-width="3" stroke-linecap="round" stroke-linejoin="round"/>
<path d="M35.8012 30.0088C38.9408 30.5359 42.4012 29.9859 44.8303 28.3588C48.0616 26.2046 48.0616 22.6754 44.8303 20.5213C42.3783 18.8941 38.872 18.3441 35.7324 18.8941" stroke="#9DC88D" stroke-width="3" stroke-linecap="round" stroke-linejoin="round"/>
<path d="M10.593 13.325C10.7305 13.3021 10.8909 13.3021 11.0284 13.325C14.1909 13.2104 16.7117 10.6208 16.7117 7.4125C16.7117 4.13542 14.0763 1.5 10.7992 1.5C7.52214 1.5 4.88672 4.15833 4.88672 7.4125C4.90964 10.6208 7.43047 13.2104 10.593 13.325Z" stroke="#9DC88D" stroke-width="3" stroke-linecap="round" stroke-linejoin="round"/>
<path d="M12.9526 30.0088C9.81302 30.5359 6.3526 29.9859 3.92344 28.3588C0.692188 26.2046 0.692188 22.6754 3.92344 20.5213C6.37552 18.8941 9.88177 18.3441 13.0214 18.8941" stroke="#9DC88D" stroke-width="3" stroke-linecap="round" stroke-linejoin="round"/>
<path d="M24.4118 30.4431C24.2743 30.4202 24.1138 30.4202 23.9763 30.4431C20.8138 30.3285 18.293 27.7389 18.293 24.5306C18.293 21.2535 20.9284 18.6182 24.2055 18.6182C27.4826 18.6182 30.118 21.2764 30.118 24.5306C30.0951 27.7389 27.5743 30.3514 24.4118 30.4431Z" stroke="#9DC88D" stroke-width="3" stroke-linecap="round" stroke-linejoin="round"/>
<path d="M17.7437 37.6612C14.5125 39.8154 14.5125 43.3446 17.7437 45.4987C21.4104 47.9508 27.4146 47.9508 31.0812 45.4987C34.3125 43.3446 34.3125 39.8154 31.0812 37.6612C27.4375 35.2321 21.4104 35.2321 17.7437 37.6612Z" stroke="#9DC88D" stroke-width="3" stroke-linecap="round" stroke-linejoin="round"/>
</svg>
